<svg width="37" height="36" viewBox="0 0 37 36" fill="none" xmlns="http://www.w3.org/2000/svg">
<path d="M5.16153 8.00443C6.79506 9.69921 8.449 11.3327 10.1438 12.9663L12.6962 15.3757C13.5538 16.1721 14.4114 16.9684 15.2894 17.7443C17.025 19.2962 18.8015 20.8276 20.6596 22.2774C21.3947 22.8491 22.4769 22.7266 23.0486 21.9711C23.5591 21.3177 23.5183 20.4192 23.0078 19.8271C21.4968 18.0302 19.8837 16.315 18.2502 14.6406C17.4334 13.8034 16.5962 12.9663 15.7795 12.1495L13.2679 9.69921C11.5731 8.0861 9.85792 6.49341 8.1223 4.92114C6.36626 3.36929 4.61022 1.81745 2.75208 0.367693C2.01699 -0.22446 0.934786 -0.0815217 0.363052 0.653565C-0.147425 1.30698 -0.10659 2.20541 0.403887 2.81798C1.93532 4.61486 3.52801 6.33007 5.16153 8.00443Z" fill="#292F36"/>
<path d="M33.0335 14.3548C33.2785 15.294 34.2178 15.8658 35.157 15.6208C35.8104 15.4574 36.2801 14.9469 36.423 14.3548C36.6681 13.3542 36.811 12.3333 36.8927 11.3328C36.9743 10.3322 37.0152 9.31127 36.9948 8.31073C36.9743 7.3102 36.9335 6.28923 36.8518 5.2887C36.7701 4.28816 36.6476 3.26721 36.423 2.26668C36.2188 1.3274 35.3 0.735249 34.3607 0.939439C33.6664 1.08237 33.1764 1.63369 33.0335 2.26668C32.8088 3.26721 32.7067 4.28816 32.6047 5.2887C32.523 6.28923 32.4821 7.3102 32.4617 8.31073C32.4413 9.31127 32.4821 10.3322 32.5638 11.3328C32.6455 12.3333 32.768 13.3542 33.0335 14.3548Z" fill="#292F36"/>
<path d="M8.87777 35.8563C9.87831 35.8358 10.8993 35.8154 11.8998 35.7133C12.9003 35.6316 13.9213 35.5091 14.9218 35.2845C15.8611 35.0803 16.4532 34.1411 16.2491 33.2018C16.1061 32.528 15.5752 32.0175 14.9218 31.8745C13.9213 31.6499 12.9003 31.5274 11.8998 31.4457C10.8993 31.3641 9.87831 31.3232 8.87777 31.3028C7.87724 31.2824 6.85629 31.3232 5.85575 31.4049C4.85522 31.4866 3.83427 31.6091 2.83373 31.8541C1.89445 32.0787 1.32272 33.0384 1.54733 33.9777C1.71068 34.6311 2.22116 35.1008 2.83373 35.2641C3.83427 35.5091 4.85522 35.6316 5.85575 35.7133C6.85629 35.8154 7.85682 35.8563 8.87777 35.8563Z" fill="#292F36"/>
</svg>
