<?xml version="1.0" encoding="utf-8"?>
<!-- Generator: Adobe Illustrator 23.1.0, SVG Export Plug-In . SVG Version: 6.00 Build 0)  -->
<svg version="1.1" id="Слой_1" xmlns="http://www.w3.org/2000/svg" xmlns:xlink="http://www.w3.org/1999/xlink" x="0px" y="0px"
	 viewBox="0 0 3000 2000" style="enable-background:new 0 0 3000 2000;" xml:space="preserve">
<style type="text/css">
	.st0{fill:#F7989C;}
	.st1{fill:#12173F;}
	.st2{fill:#7FCACF;}
	.st3{fill:#283071;}
	.st4{fill:#FFFFFF;}
</style>
<g id="Hand">
	<path class="st0" d="M1812.44,1337.88c-273.22,288.44-297.33,308.64-657.23,308.64l-179.3-430.09l836.54-149.5L1812.44,1337.88z"/>
	<path class="st1" d="M1591.67,1527.76c0.31-3.35,2.37-15.77,5.44-27.59c-6.85-2.34-15.08-6.88-20.72-9.68
		c-33.13-16.43-57.04-42.58-59.25-81.22c-0.83-14.44,1.33-27.97,5.15-41c-7.06-0.37-16.4,2.89-24,1.04
		c-38.36-9.33-32.41-53.19-35.89-60.26c-3.39,5.33-33.22,50.52-40.88,63.08c-10.05,16.47-21.49,31.53-34.23,45.32
		c40.06,57.21-2.61,145.98-36.37,210.1c-2.45,4.64-4.94,9.27-7.4,13.9c107.52-8.61,173.93-31.3,249.05-89.16
		C1591.26,1544.6,1590.88,1536.46,1591.67,1527.76z"/>
	<path class="st0" d="M1869.49,1220.75c0,0,19.14-78.98-22.69-153.83c2.14-58.98-39.37-132.21-78.13-114.5l-236.21,224.55
		c0,0,70.34,198,40.36,306.31c-5.55,20.06-4.74,40.22,5.52,59.08c57.27,105.26,207.61-75.29,276.54-171.27
		C1914.94,1287.47,1869.49,1220.75,1869.49,1220.75z"/>
	<path class="st0" d="M1155.21,1646.52l-264.9,0c-49.4-141.92-49.4-283.85,0-425.77l264.9,0V1646.52z"/>
	<path class="st1" d="M1523.69,1369.84c-1.85,0-3.54-1.23-4.06-3.09c-0.62-2.25,0.7-4.57,2.94-5.18
		c37.29-10.27,218.82-187.99,309.59-280.53c1.62-1.66,4.3-1.68,5.96-0.06c1.66,1.64,1.69,4.3,0.06,5.96
		c-10.78,10.98-264.59,269.32-313.36,282.76C1524.44,1369.79,1524.06,1369.84,1523.69,1369.84z"/>
	<path class="st1" d="M1575.08,1487.33c-5.33,0-10.34-0.78-15.01-2.43c-23.4-8.24-40.01-24.03-48.03-45.66
		c-7.66-20.64-6.29-44.97,3.44-66.76c-13.23,3-24.55,1.28-33.74-5.13c-23.29-16.22-23.55-56.6-23.55-58.31
		c0-2.33,1.88-4.21,4.21-4.21c0,0,0,0,0,0c2.32,0,4.21,1.88,4.21,4.21c0,0.37,0.28,37.71,19.96,51.41
		c8.96,6.23,20.95,6.63,35.66,1.22c1.65-0.63,3.53-0.13,4.67,1.23c1.14,1.35,1.32,3.27,0.44,4.81c-12.5,21.74-15.27,47.38-7.4,68.58
		c7.12,19.21,21.97,33.26,42.93,40.64c64.1,22.56,220.79-152.05,303.29-258.78c1.42-1.84,4.06-2.18,5.91-0.76s2.18,4.06,0.76,5.91
		C1837.24,1269.35,1664.01,1487.33,1575.08,1487.33z"/>
	<path class="st1" d="M1622.1,1508.68c-1.18,0-2.34-0.49-3.18-1.45c-1.53-1.75-1.35-4.42,0.41-5.94
		c28.54-24.85,50.9-35.65,70.34-33.55c13.05,1.31,24.74,8.56,34.72,21.56c1.42,1.84,1.07,4.49-0.77,5.91
		c-1.85,1.42-4.49,1.06-5.91-0.77c-8.63-11.25-18.08-17.24-28.88-18.31c-16.77-1.78-37.67,8.63-63.98,31.52
		C1624.06,1508.34,1623.08,1508.68,1622.1,1508.68z"/>
	<path class="st1" d="M1564.27,1409.72c-1,0-2-0.35-2.81-1.07c-1.73-1.56-1.88-4.22-0.33-5.95c2.1-2.36,51.95-57.71,91.65-52.09
		c13.72,1.88,24.5,10.64,32.02,26c1.02,2.09,0.16,4.61-1.93,5.64c-2.09,1.01-4.61,0.16-5.64-1.93
		c-6.31-12.87-14.69-19.85-25.62-21.36c-35.23-4.92-83.73,48.81-84.22,49.36C1566.58,1409.24,1565.43,1409.72,1564.27,1409.72z"/>
	<path class="st1" d="M1498.28,1296.72c-0.95,0-1.91-0.32-2.69-0.98c-1.79-1.49-2.02-4.15-0.53-5.93
		c1.82-2.19,45.04-53.55,82.01-50.5c12.66,1.01,23,8.13,30.74,21.14c1.19,2.01,0.53,4.59-1.47,5.78c-2,1.19-4.58,0.53-5.77-1.46
		c-6.35-10.69-14.25-16.27-24.17-17.06c-32.59-2.48-74.45,46.99-74.87,47.5C1500.68,1296.2,1499.49,1296.72,1498.28,1296.72z"/>
</g>
<g id="Objects">
	<path class="st2" d="M670.72,1088.2c-1.88,0-3.6-1.27-4.08-3.18c-0.58-2.25,0.79-4.55,3.04-5.12l285.86-72.7
		c2.21-0.6,4.55,0.78,5.12,3.04c0.58,2.25-0.79,4.55-3.04,5.12l-285.86,72.7C671.41,1088.16,671.06,1088.2,670.72,1088.2z"/>
	<path class="st2" d="M513.69,1060.95c-1.87,0-3.58-1.26-4.07-3.16c-0.58-2.25,0.77-4.55,3.02-5.13l225.47-58.43
		c2.24-0.58,4.55,0.77,5.13,3.03c0.58,2.25-0.77,4.55-3.02,5.13l-225.47,58.43C514.4,1060.91,514.04,1060.95,513.69,1060.95z"/>
	<path class="st2" d="M1354.83,414.3c-2.07,0-3.88-1.53-4.17-3.64c-0.32-2.3,1.29-4.43,3.6-4.75l191.16-26.38
		c2.31-0.34,4.43,1.29,4.75,3.6c0.32,2.3-1.29,4.43-3.6,4.75l-191.16,26.38C1355.21,414.29,1355.01,414.3,1354.83,414.3z"/>
	<path class="st2" d="M2047.1,1077.46c-0.72,0-1.44-0.18-2.1-0.57l-29.87-17.24c-0.97-0.55-1.67-1.47-1.96-2.55
		c-0.29-1.09-0.14-2.23,0.42-3.2l17.24-29.86c1.16-2.02,3.74-2.72,5.76-1.54l29.87,17.24c0.97,0.55,1.67,1.47,1.96,2.55
		c0.29,1.09,0.14,2.23-0.42,3.2l-17.24,29.87C2049.97,1076.7,2048.55,1077.46,2047.1,1077.46z M2022.99,1054.47l22.57,13.03
		l13.03-22.58l-22.57-13.03L2022.99,1054.47z"/>
</g>
<g id="Paper_plane">
	<polygon class="st3" points="1008.81,638.96 2486.3,576.16 1369.28,1309.05 	"/>
	<polygon class="st4" points="1374.33,638.96 1629.58,383.71 2486.3,573.25 	"/>
	<path class="st1" d="M1374.33,643.17c-1.65,0-3.16-0.97-3.84-2.48c-0.72-1.6-0.37-3.47,0.86-4.71l255.25-255.24
		c1.02-1.02,2.49-1.44,3.89-1.14l856.72,189.54c2.05,0.45,3.46,2.35,3.29,4.45c-0.17,2.09-1.86,3.74-3.95,3.87l-1111.97,65.7
		C1374.5,643.17,1374.41,643.17,1374.33,643.17z M1630.92,388.33l-245.78,245.77l1070.71-63.26L1630.92,388.33z"/>
	<polygon class="st4" points="975.04,573.25 716.78,831.51 869.56,890.78 2486.3,573.25 	"/>
	<path class="st1" d="M869.56,895c-0.52,0-1.04-0.1-1.52-0.29l-152.78-59.28c-1.33-0.51-2.31-1.66-2.6-3.05
		c-0.29-1.4,0.14-2.85,1.14-3.85l258.25-258.25c0.79-0.79,1.86-1.23,2.98-1.23H2486.3c2.17,0,3.98,1.65,4.19,3.8
		c0.21,2.16-1.25,4.13-3.38,4.54L870.37,894.91C870.1,894.97,869.83,895,869.56,895z M724.33,829.92l145.61,56.5L2443,577.47H976.78
		L724.33,829.92z"/>
	<polygon class="st4" points="716.78,831.51 693.82,753.32 869.56,890.78 	"/>
	<path class="st1" d="M869.56,895c-0.51,0-1.02-0.09-1.52-0.29l-152.78-59.28c-1.22-0.47-2.15-1.48-2.52-2.74l-22.96-78.19
		c-0.51-1.75,0.16-3.64,1.68-4.67c1.51-1.03,3.52-0.97,4.96,0.17l175.73,137.47c1.65,1.28,2.1,3.58,1.07,5.4
		C872.46,894.22,871.04,895,869.56,895z M720.24,828.33l124.29,48.23L701.56,764.72L720.24,828.33z"/>
</g>
<g id="Thumb">
	<path class="st0" d="M975.9,1224.81c277.99-345.5,444.43-310.85,661.59-332.84c148.73-15.06,102.7,117.89,12.39,141.19
		c-106.23,27.4-179.41,47.44-179.41,47.44s65.22,141.58-84.84,353.25S975.9,1224.81,975.9,1224.81z"/>
	<path class="st1" d="M1640.93,956.67c-23.37,0-50.56-3.6-66.71-17.81c-10.16-8.95-14.9-21.06-14.07-35.99
		c0.12-2.33,1.97-4.29,4.44-3.97c2.32,0.12,4.1,2.11,3.97,4.43c-0.69,12.39,2.99,21.94,11.22,29.19
		c28.91,25.48,102.64,12.25,103.38,12.1c2.27-0.35,4.48,1.09,4.91,3.38c0.42,2.29-1.09,4.48-3.38,4.9
		C1683.11,953.21,1663.85,956.67,1640.93,956.67z"/>
	<path class="st1" d="M1145.65,1571.07c-2.08,0-3.89-1.54-4.17-3.66c-0.3-2.3,1.32-4.42,3.62-4.73
		c206.69-27.36,276.42-137.91,327.01-319.65c0.63-2.25,2.94-3.56,5.19-2.93c2.24,0.63,3.55,2.95,2.92,5.18
		c-51.53,185.13-122.71,297.78-334.02,325.75C1146.02,1571.07,1145.83,1571.07,1145.65,1571.07z"/>
	<path class="st4" d="M1321.1,1002.52c-1.13,0-2.25-0.45-3.08-1.34l-31.35-33.65c-1.59-1.7-1.49-4.37,0.21-5.96
		c1.7-1.59,4.36-1.49,5.95,0.21l31.35,33.65c1.59,1.7,1.49,4.37-0.21,5.96C1323.16,1002.15,1322.13,1002.52,1321.1,1002.52z"/>
</g>
</svg>
