<svg width="3000" height="3000" viewBox="0 0 3000 3000" fill="none" xmlns="http://www.w3.org/2000/svg">
<path d="M2434 1388.4H2013.6C1996.3 1388.4 1982.2 1402.5 1982.1 1419.9V1761.4C1982.2 1778.7 1996.3 1792.7 2013.6 1792.7H2434C2451.4 1792.7 2465.5 1778.6 2465.5 1761.2V1419.8C2465.5 1402.5 2451.3 1388.4 2434 1388.4ZM2405.4 1503V1678C2405.4 1706.5 2382.2 1729.7 2353.7 1729.7H2092.8C2064.3 1729.7 2041.1 1706.5 2041.1 1678V1503C2041.1 1474.5 2064.3 1451.3 2092.8 1451.3H2353.7C2382.2 1451.4 2405.4 1474.5 2405.4 1503Z" fill="#FFDA00"/>
<path d="M1932 2220C1931.5 2220 1931 2220 1930.5 2220.1H1894.2C1877.1 2220.1 1863.2 2234 1863.2 2251.1V2355.9C1863.2 2379.8 1843.8 2399.3 1819.8 2399.3H1286.5C1262.6 2399.3 1243.1 2379.9 1243.1 2355.9V2251C1243.1 2233.9 1229.2 2220 1212.1 2220H828.4C811.1 2220.1 797 2234.2 797 2251.5V2513.4C797 2530.7 811.1 2544.8 828.4 2544.9H1930.4C1947.8 2544.9 1961.9 2530.8 1961.9 2513.4V2249.9C1961.9 2233.1 1948.7 2220 1932 2220ZM1794.6 2473.6C1794.6 2491 1780.5 2505.1 1763.1 2505.1H1606C1588.6 2505.1 1574.5 2490.9 1574.5 2473.6C1574.5 2456.2 1588.6 2442.1 1606 2442.1H1763.1C1780.4 2442 1794.6 2456.2 1794.6 2473.6ZM1531.8 2473.6C1531.8 2491 1517.7 2505.1 1500.3 2505.1H1343.2C1325.8 2505.1 1311.7 2490.9 1311.7 2473.6C1311.7 2456.2 1325.8 2442.1 1343.2 2442.1H1500.3C1517.7 2442 1531.8 2456.2 1531.8 2473.6ZM1187.3 2408C1187.3 2420.5 1181.1 2432.2 1170.8 2439.2C1163.3 2444.4 1158.7 2452.2 1158.1 2460.8L1156.7 2483.1C1156.5 2487 1153.4 2490.2 1149.7 2490.4C1145.7 2490.5 1142.3 2487.5 1142.1 2483.5L1140.7 2460.7C1140.2 2452.2 1135.6 2444.3 1128 2439.1C1117.6 2432 1111.5 2420.4 1111.5 2407.9C1111.5 2395.5 1117.6 2383.8 1127.9 2376.7C1135.4 2371.6 1139.8 2363.7 1140 2355.2L1142 2285C1142.1 2280.9 1145.2 2277.6 1149 2277.4C1149.1 2277.4 1149.2 2277.4 1149.4 2277.4C1151.2 2277.4 1153 2278.1 1154.3 2279.3C1155.8 2280.6 1156.6 2282.5 1156.7 2284.5L1158.8 2355.2C1159.1 2363.7 1163.5 2371.5 1170.9 2376.7C1181.2 2383.9 1187.3 2395.5 1187.3 2408ZM1061.2 2360.3C1061.2 2372.7 1055.1 2384.4 1044.8 2391.5C1037.4 2396.6 1033 2404.5 1032.7 2413L1030.7 2483.2C1030.6 2487.3 1027.5 2490.6 1023.7 2490.8C1021.7 2490.9 1019.8 2490.2 1018.4 2488.9C1016.9 2487.5 1016.1 2485.7 1016 2483.7L1013.9 2413C1013.6 2404.5 1009.2 2396.6 1001.8 2391.5C991.5 2384.4 985.4 2372.7 985.4 2360.3C985.4 2347.8 991.6 2336.1 1001.9 2329C1009.4 2323.8 1014.1 2316 1014.6 2307.4L1016 2285.1C1016.3 2281.1 1019.3 2277.9 1023 2277.8C1023.1 2277.8 1023.2 2277.8 1023.3 2277.8C1027.2 2277.8 1030.4 2280.8 1030.6 2284.7L1032 2307.5C1032.5 2316 1037.1 2323.9 1044.7 2329.1C1055 2336.1 1061.2 2347.8 1061.2 2360.3ZM935.1 2408C935.1 2420.5 928.9 2432.2 918.6 2439.2C911.1 2444.4 906.4 2452.2 905.9 2460.8L904.5 2483.1C904.2 2487.1 901.2 2490.3 897.5 2490.4C893.5 2490.5 890.1 2487.5 889.9 2483.5L888.5 2460.7C888 2452.2 883.4 2444.3 875.8 2439.1C865.4 2432 859.3 2420.4 859.3 2407.9C859.3 2395.5 865.4 2383.8 875.8 2376.7C883.2 2371.6 887.7 2363.7 887.9 2355.2L889.9 2285C890 2280.9 893.1 2277.6 896.9 2277.4C897 2277.4 897.1 2277.4 897.3 2277.4C899.1 2277.4 900.9 2278.1 902.2 2279.3C903.7 2280.7 904.5 2282.5 904.6 2284.5L906.7 2355.2C907 2363.7 911.4 2371.6 918.8 2376.7C929 2383.9 935.1 2395.5 935.1 2408Z" fill="#FFDA00"/>
<path d="M1181.8 1126.9H1860.5C1877.9 1126.9 1892 1112.8 1892 1095.4V593.5C1892 576.1 1877.9 562 1860.5 562H1182C1164.6 562 1150.5 576.1 1150.5 593.5V1095.4C1150.4 1112.7 1164.5 1126.9 1181.8 1126.9ZM1225.1 1000.4V688.5C1225.1 660 1248.3 636.8 1276.8 636.8H1763.9C1792.4 636.8 1815.6 661.6 1815.6 692.1V996.7C1815.6 1027.2 1792.4 1052 1763.9 1052H1276.8C1248.3 1052.1 1225.1 1028.9 1225.1 1000.4Z" fill="#FFDA00"/>
<path d="M2539.3 1957.1C2538.9 1956.7 2538.4 1956.4 2538 1956C2537.6 1955.6 2537.1 1955.3 2536.7 1954.9C2519.5 1940.9 2497.8 1933.2 2475.6 1933.2H2177.8C2173.4 1933.2 2169.5 1935.7 2167.7 1939.7C2165.9 1943.7 2166.6 1948.3 2169.6 1951.6C2189.2 1973.2 2200 2001.2 2200 2030.3V2641.2C2200 2658.8 2206.8 2675.3 2219.2 2687.6C2231.6 2700.1 2248.1 2706.9 2265.6 2706.9C2266.1 2706.9 2266.5 2706.9 2267 2706.9C2302.5 2706.2 2331.3 2676.1 2331.3 2639.7V2613.5C2331.3 2596.8 2344.9 2583.2 2361.6 2583.2H2543.3C2559.5 2583.2 2572.7 2570 2572.7 2553.8V2030.3C2572.6 2002.3 2560.5 1975.6 2539.3 1957.1ZM2349.3 2514.4C2349.6 2510.9 2352.4 2508.1 2356 2507.7C2367.1 2506.7 2379 2506 2393.6 2505.6C2407 2505.1 2420.1 2505 2431.2 2505C2446.2 2505 2457.8 2505.2 2468.8 2505.6C2483.4 2506.1 2495.4 2506.7 2506.4 2507.8C2510.4 2508.2 2513.4 2511.8 2513 2515.8C2512.7 2519.3 2509.9 2522.1 2506.4 2522.4C2495.4 2523.4 2483.5 2524.1 2468.8 2524.6C2457.8 2525 2446.2 2525.2 2431.2 2525.2C2420.1 2525.2 2407 2525 2393.6 2524.6C2379 2524.2 2367.1 2523.5 2356 2522.5C2354 2522.3 2352.3 2521.4 2351 2519.9C2349.7 2518.2 2349.1 2516.3 2349.3 2514.4ZM2255.7 2065C2256.1 2061.5 2258.8 2058.8 2262.3 2058.4C2274.2 2057.2 2286.1 2056.6 2295.1 2056.3C2305.9 2055.9 2316.8 2055.7 2327.8 2055.7L2344.2 2055.8C2346.2 2055.9 2348.2 2055.9 2350.2 2056C2353.6 2056.1 2357.1 2056.2 2360.6 2056.3C2373.1 2056.7 2383.5 2057.4 2393.4 2058.5C2397.4 2058.9 2400.4 2062.6 2399.9 2066.6C2399.5 2070 2396.8 2072.8 2393.4 2073.1C2383.9 2074.1 2373.5 2074.8 2360.6 2075.3C2357.1 2075.5 2353.6 2075.5 2350.2 2075.6C2348.2 2075.6 2346.2 2075.7 2344.3 2075.8L2327.9 2075.9C2318.2 2075.9 2306.8 2075.7 2295.1 2075.3C2286.1 2075 2274.3 2074.4 2262.3 2073.2C2258.2 2072.6 2255.3 2069 2255.7 2065ZM2512 2067.3C2511.4 2070.2 2509.1 2072.4 2506.3 2073C2500.3 2074.3 2494.4 2074.9 2490 2075.2C2484.2 2075.6 2478.8 2075.8 2473.6 2075.7C2467.7 2075.7 2462.4 2075.5 2457.2 2075C2450.6 2074.5 2445.5 2073.9 2440.8 2072.9C2438.8 2072.5 2437.1 2071.4 2436 2069.7C2434.9 2068 2434.5 2066.1 2434.9 2064.1C2435.5 2061.1 2437.8 2058.8 2440.8 2058.2C2445.5 2057.3 2450.6 2056.6 2457.2 2056.1C2462.3 2055.7 2467.7 2055.5 2473.6 2055.4C2474.4 2055.4 2475.3 2055.4 2476.1 2055.4C2480.5 2055.4 2485.1 2055.6 2490 2055.9C2494.5 2056.2 2500.4 2056.8 2506.4 2058.1C2510.3 2059.3 2512.8 2063.3 2512 2067.3ZM2477.5 1991.2C2477.3 1994.9 2474.3 1997.8 2470.6 1998.1C2434.2 2000.4 2397.5 2000.8 2366.4 2000.9C2347 2000.8 2330.7 2000.7 2314.3 2000.3C2297 1999.9 2279.5 1999.2 2262.2 1998.1C2258.2 1997.9 2255.1 1994.4 2255.3 1990.3C2255.5 1986.6 2258.5 1983.7 2262.2 1983.4C2279.9 1982.3 2297.5 1981.6 2314.3 1981.2C2329.5 1980.8 2346.1 1980.7 2366.4 1980.6C2397.1 1980.7 2433.5 1981.1 2470.6 1983.4C2472.6 1983.5 2474.3 1984.4 2475.6 1985.9C2477 1987.3 2477.6 1989.2 2477.5 1991.2ZM2262.2 2133.4C2282.5 2132.3 2303 2131.6 2323.3 2131.2C2342.6 2130.8 2361.7 2130.7 2384.3 2130.6C2420.7 2130.7 2463.7 2131.1 2506.4 2133.4C2510.4 2133.6 2513.5 2137.1 2513.3 2141.1C2513.1 2144.9 2510.1 2147.8 2506.4 2148C2462.9 2150.3 2420.3 2150.7 2384.3 2150.8C2360.5 2150.8 2341.1 2150.6 2323.2 2150.2C2303.5 2149.9 2282.9 2149.1 2262.1 2148C2258.1 2147.8 2255 2144.3 2255.2 2140.3C2255.5 2136.6 2258.5 2133.6 2262.2 2133.4ZM2262.3 2283.5C2268.6 2282.5 2275.4 2281.8 2284.2 2281.3C2291.9 2280.8 2299.6 2280.7 2306.1 2280.7C2314.2 2280.8 2321.1 2280.9 2328 2281.3C2334.4 2281.7 2342 2282.2 2349.9 2283.5C2351.8 2283.8 2353.6 2284.8 2354.7 2286.4C2355.9 2288 2356.4 2290 2356 2291.9C2355.5 2295.1 2353 2297.6 2349.8 2298.1C2341.8 2299.3 2333.9 2299.9 2327.9 2300.2C2321 2300.6 2314.2 2300.7 2306 2300.8C2299.5 2300.8 2291.8 2300.7 2284.1 2300.2C2275.5 2299.7 2268.6 2299 2262.3 2298C2258.3 2297.3 2255.5 2293.5 2256.1 2289.5C2256.6 2286.4 2259.1 2284 2262.3 2283.5ZM2506.3 2298.1C2496 2299.3 2485.8 2299.9 2478.1 2300.2C2469.2 2300.6 2460.4 2300.7 2449.9 2300.8C2441.5 2300.8 2431.6 2300.7 2421.7 2300.2C2410.6 2299.7 2401.7 2299 2393.5 2298C2391.5 2297.8 2389.8 2296.8 2388.6 2295.2C2387.4 2293.6 2386.9 2291.7 2387.1 2289.8C2387.5 2286.4 2390.1 2283.8 2393.5 2283.4C2401.7 2282.4 2410.4 2281.7 2421.7 2281.2C2431.7 2280.7 2441.6 2280.6 2449.9 2280.6C2460.4 2280.7 2469.2 2280.8 2478.1 2281.2C2485.9 2281.5 2496.1 2282.1 2506.3 2283.4C2508.3 2283.6 2510 2284.6 2511.2 2286.2C2512.4 2287.8 2513 2289.7 2512.7 2291.6C2512.4 2295 2509.7 2297.7 2506.3 2298.1ZM2255.5 2215.2C2255.8 2211.6 2258.6 2208.8 2262.2 2208.5C2274.6 2207.5 2287.6 2206.8 2304.4 2206.3C2319.3 2205.8 2334.1 2205.7 2346.6 2205.7C2362.3 2205.8 2375.5 2205.9 2388.9 2206.3C2400.5 2206.6 2415.8 2207.2 2431.1 2208.4C2435.2 2208.7 2438.2 2212.3 2437.8 2216.3C2437.5 2219.9 2434.7 2222.7 2431.1 2223C2416 2224.3 2401.3 2224.8 2388.9 2225.2C2375.6 2225.6 2362.4 2225.7 2346.7 2225.8C2334.2 2225.8 2319.4 2225.7 2304.5 2225.2C2287.6 2224.7 2274.5 2224 2262.3 2223C2260.4 2222.8 2258.6 2221.9 2257.3 2220.4C2256 2219 2255.4 2217.1 2255.5 2215.2ZM2255.7 2365C2256.1 2361.6 2258.8 2358.8 2262.2 2358.5C2271.7 2357.5 2281.8 2356.8 2295 2356.3C2304.6 2355.9 2315 2355.8 2327.8 2355.7C2340 2355.8 2350.2 2355.9 2360.6 2356.3C2373.7 2356.8 2383.8 2357.5 2393.4 2358.5C2395.4 2358.7 2397.1 2359.7 2398.4 2361.2C2399.6 2362.7 2400.2 2364.6 2400 2366.6C2399.6 2370 2396.9 2372.8 2393.5 2373.2C2381.6 2374.4 2369.7 2375 2360.7 2375.3C2349 2375.8 2337.6 2375.9 2328 2375.9C2315.8 2375.8 2305.6 2375.7 2295.2 2375.3C2282.4 2374.8 2272 2374.2 2262.5 2373.1C2258.2 2372.7 2255.3 2369 2255.7 2365ZM2262.2 2432.7C2283 2431.6 2303.5 2430.9 2323.3 2430.5C2341.1 2430.1 2360.5 2430 2384.3 2429.9C2420.3 2430 2462.9 2430.4 2506.4 2432.7C2508.4 2432.8 2510.2 2433.7 2511.5 2435.1C2512.8 2436.6 2513.5 2438.4 2513.4 2440.4C2513.2 2444.1 2510.2 2447.1 2506.5 2447.3C2463.9 2449.6 2420.9 2450 2384.4 2450.1C2361.7 2450 2342.7 2449.9 2323.3 2449.5C2303.1 2449.1 2282.5 2448.4 2262.2 2447.3C2258.2 2447.1 2255.1 2443.6 2255.3 2439.6C2255.5 2435.9 2258.5 2432.9 2262.2 2432.7ZM2257.1 2513C2257.8 2510.4 2259.8 2508.5 2262.4 2507.7C2265.9 2506.7 2269.7 2506 2274.3 2505.6C2278.4 2505.2 2282.4 2505 2286.3 2505C2286.5 2505 2286.7 2505 2287 2505C2290.6 2505 2294.4 2505.2 2298.3 2505.6C2303 2506.1 2306.7 2506.7 2310.2 2507.7C2314.2 2508.9 2316.6 2513.1 2315.4 2517.2C2314.7 2519.7 2312.7 2521.7 2310.2 2522.4C2306.7 2523.4 2303 2524.1 2298.3 2524.5C2294.1 2524.9 2290.1 2525.1 2286.3 2525.1C2282.4 2525.1 2278.4 2524.9 2274.3 2524.5C2269.7 2524.1 2265.9 2523.4 2262.4 2522.4C2258.4 2521.3 2256 2517 2257.1 2513Z" fill="#FF5777"/>
<path d="M2236.4 1336.7V1178.6C2236.4 1161.2 2222.3 1147.1 2204.9 1147.1H1661.7C1645.6 1147.1 1632.4 1160.2 1632.4 1176.4V1339C1632.4 1355.1 1645.5 1368.3 1661.7 1368.3H2205C2222.3 1368.2 2236.4 1354.1 2236.4 1336.7ZM2169.3 1237V1278.3C2169.3 1298.7 2152.7 1315.3 2132.3 1315.3H2087.4C2087.3 1315.3 2087.2 1315.3 2087.1 1315.3H1747.7H1732.5C1712.1 1315.3 1695.5 1298.7 1695.5 1278.3V1237C1695.5 1216.6 1712.1 1200 1732.5 1200H2132.2C2152.7 1200 2169.3 1216.6 2169.3 1237Z" fill="#FF5777"/>
<path d="M1592.9 1297.2H1471.7C1461 1297.2 1452.3 1305.9 1452.3 1316.6V1338.9C1452.3 1355 1465.4 1368.2 1481.5 1368.2H1583C1599.1 1368.2 1612.3 1355.1 1612.3 1338.9V1316.6C1612.3 1305.9 1603.6 1297.2 1592.9 1297.2Z" fill="#FF5777"/>
<path d="M1583 1147.1H1481.5C1465.4 1147.1 1452.3 1160.2 1452.3 1176.4V1198.7C1452.3 1209.4 1461 1218.1 1471.7 1218.1H1592.9C1603.6 1218.1 1612.3 1209.4 1612.3 1198.7V1176.4C1612.3 1160.2 1599.1 1147.1 1583 1147.1Z" fill="#FF5777"/>
<path d="M1402.8 1147.1H1181.9C1164.5 1147.1 1150.4 1161.2 1150.4 1178.6V1338.3C1150.4 1346.7 1153.7 1354.4 1159.7 1360.1C1165.3 1365.4 1172.6 1368.3 1180.4 1368.3C1180.9 1368.3 1181.4 1368.3 1182 1368.3H1402.9C1419 1368.3 1432.2 1355.2 1432.2 1339V1176.4C1432.1 1160.2 1418.9 1147.1 1402.8 1147.1ZM1377 1257.6C1377 1293.7 1347.6 1323.1 1311.5 1323.1H1272.9C1236.8 1323.1 1207.4 1293.7 1207.4 1257.6C1207.4 1221.5 1236.8 1192.1 1272.9 1192.1H1311.5C1347.6 1192.1 1377 1221.5 1377 1257.6Z" fill="#FF5777"/>
<path d="M1098.8 1567.2H529.1C511.7 1567.2 497.6 1581.3 497.6 1598.7V2168.4C497.6 2185.8 511.7 2199.9 529.1 2199.9H1098.8C1116.2 2199.9 1130.3 2185.8 1130.3 2168.4V1598.7C1130.3 1581.3 1116.1 1567.2 1098.8 1567.2ZM871.1 2163.1C871.1 2170.2 865.3 2176 858.2 2176C851.1 2176 845.3 2170.2 845.3 2163.1C845.3 2156 851.1 2150.2 858.2 2150.2C865.3 2150.2 871.1 2156 871.1 2163.1ZM815.7 2163.1C815.7 2170.2 809.9 2176 802.8 2176C795.7 2176 789.9 2170.2 789.9 2163.1C789.9 2156 795.7 2150.2 802.8 2150.2C809.9 2150.2 815.7 2156 815.7 2163.1ZM760.3 2163.1C760.3 2170.2 754.5 2176 747.4 2176C740.3 2176 734.5 2170.2 734.5 2163.1C734.5 2156 740.3 2150.2 747.4 2150.2C754.5 2150.2 760.3 2156 760.3 2163.1ZM1046.8 1702.1V2064.8C1046.8 2096.1 1023.6 2121.6 995.1 2121.6H627.6C599.1 2121.6 575.9 2098.4 575.9 2069.9V1696.9C575.9 1668.4 599.1 1645.2 627.6 1645.2H995.1C1023.7 1645.3 1046.8 1670.8 1046.8 1702.1Z" fill="#FF5777"/>
<path d="M2658.2 1812.9H2013.6C1996.2 1812.9 1982.1 1827 1982.1 1844.4V2024C1982.1 2041.4 1996.2 2055.5 2013.6 2055.5H2154.7C2161.4 2055.5 2167.8 2052.9 2172.5 2048.1C2177.2 2043.3 2179.9 2037 2179.9 2030.3C2179.9 2026.5 2179.7 2022.8 2179.3 2019.3C2177.5 2003.7 2164.3 1991.9 2148.6 1991.9H2137.6C2122.2 1991.9 2107.8 1985.9 2096.9 1975C2086 1964.1 2080 1949.6 2080 1934.2C2080 1927.2 2081.3 1920.3 2083.9 1913.6L2084 1913.4V1913H2084.1L2084.4 1912.4C2093.3 1890.6 2114.3 1876.5 2137.7 1876.5H2534.6C2550 1876.5 2564.5 1882.5 2575.4 1893.4C2586.3 1904.2 2592.3 1918.7 2592.3 1934.1C2592.3 1934.6 2592.4 1946.4 2592.6 1961.4L2592.8 1981.6C2592.9 1993.2 2593 2004.9 2593.1 2013.9C2593.2 2023 2593.2 2029.5 2593.2 2030.2C2593.2 2044.1 2604.5 2055.4 2618.4 2055.4H2658.6C2676 2055.4 2690.1 2041.3 2690.1 2023.9V1844.3C2689.7 1827 2675.5 1812.9 2658.2 1812.9ZM2638.7 1918.6C2631.6 1918.6 2625.8 1912.8 2625.8 1905.7C2625.8 1898.6 2631.6 1892.8 2638.7 1892.8C2645.8 1892.8 2651.6 1898.6 2651.6 1905.7C2651.6 1912.8 2645.8 1918.6 2638.7 1918.6ZM2638.7 1945C2645.8 1945 2651.6 1950.8 2651.6 1957.9C2651.6 1965 2645.8 1970.8 2638.7 1970.8C2631.6 1970.8 2625.8 1965 2625.8 1957.9C2625.8 1950.8 2631.6 1945 2638.7 1945Z" fill="#1FAAFF"/>
<path d="M1930.4 1388.4H1182C1164.6 1388.4 1150.5 1402.5 1150.5 1419.9V2168.4C1150.5 2185.8 1164.6 2199.9 1182 2199.9H1930.4C1947.8 2199.9 1961.9 2185.8 1961.9 2168.4V1419.9C1961.9 1402.5 1947.7 1388.4 1930.4 1388.4ZM1447.6 2085.8C1440.5 2085.8 1434.7 2080 1434.7 2072.9C1434.7 2065.8 1440.5 2060 1447.6 2060C1454.7 2060 1460.5 2065.8 1460.5 2072.9C1460.5 2080 1454.7 2085.8 1447.6 2085.8ZM1447.6 2112.2C1454.7 2112.2 1460.5 2118 1460.5 2125.1C1460.5 2132.2 1454.7 2138 1447.6 2138C1440.5 2138 1434.7 2132.2 1434.7 2125.1C1434.8 2117.9 1440.6 2112.2 1447.6 2112.2ZM1389.7 2085.8C1382.6 2085.8 1376.8 2080 1376.8 2072.9C1376.8 2065.8 1382.6 2060 1389.7 2060C1396.8 2060 1402.6 2065.8 1402.6 2072.9C1402.5 2080 1396.8 2085.8 1389.7 2085.8ZM1389.7 2112.2C1396.8 2112.2 1402.6 2118 1402.6 2125.1C1402.6 2132.2 1396.8 2138 1389.7 2138C1382.6 2138 1376.8 2132.2 1376.8 2125.1C1376.8 2117.9 1382.6 2112.2 1389.7 2112.2ZM1551.2 2047.4H1808.8C1837.2 2047.4 1860.4 2070.5 1860.4 2099C1860.4 2127.4 1837.3 2150.6 1808.8 2150.6H1551.2C1522.8 2150.6 1499.6 2127.5 1499.6 2099C1499.6 2070.5 1522.7 2047.4 1551.2 2047.4ZM1248.6 2066.2C1248.6 2060.6 1253.1 2056.1 1258.7 2056.1H1324.2C1329.8 2056.1 1334.3 2060.6 1334.3 2066.2V2131.7C1334.3 2137.3 1329.8 2141.8 1324.2 2141.8H1258.7C1253.1 2141.8 1248.6 2137.3 1248.6 2131.7V2066.2ZM1868.7 1523.3V1943.6C1868.7 1972.1 1845.5 1995.3 1817 1995.3H1285.3C1256.8 1995.3 1233.6 1972.1 1233.6 1943.6V1523.3C1233.6 1494.8 1256.8 1471.6 1285.3 1471.6H1817C1845.5 1471.6 1868.7 1494.8 1868.7 1523.3Z" fill="#1FAAFF"/>
<path d="M1098.8 856.2H673.2C655.8 856.2 641.7 870.3 641.7 887.7V1515.5C641.7 1532.9 655.8 1547 673.2 1547H1098.8C1116.2 1547 1130.3 1532.9 1130.3 1515.5V887.7C1130.3 870.4 1116.1 856.2 1098.8 856.2ZM862.6 1439.7C862.6 1446.3 862.4 1452 862 1457.3C861.6 1464 860.9 1469.6 859.8 1474.8C859.4 1476.7 858.3 1478.4 856.6 1479.5C854.9 1480.6 852.9 1481 851 1480.6C848 1480 845.7 1477.7 845.1 1474.8C844.1 1469.5 843.4 1464 842.9 1457.3C842.5 1452.1 842.3 1446.3 842.3 1439.7C842.3 1434.5 842.5 1428.4 842.9 1422.1C843.2 1417.3 843.8 1411 845 1404.6C845.4 1402.6 846.5 1400.9 848.2 1399.8C849.4 1399 850.9 1398.5 852.3 1398.5C852.8 1398.5 853.2 1398.5 853.7 1398.6C856.7 1399.2 859.1 1401.5 859.6 1404.5C860.8 1410.8 861.4 1417.2 861.7 1422C862.4 1428.4 862.5 1434.5 862.6 1439.7ZM798.5 1439.7C798.6 1445.5 798.4 1451.4 798 1457.3C797.6 1464.1 796.8 1469.6 795.8 1474.8C794.9 1478.8 791 1481.5 786.9 1480.6C784 1480 781.7 1477.7 781.1 1474.8C780 1469.6 779.3 1464.1 778.9 1457.3C778.5 1451.5 778.3 1445.6 778.4 1439.7C778.5 1432.9 778.7 1427.3 779.1 1422.1C779.6 1415 780.2 1409.6 781.2 1404.6C781.6 1402.6 782.7 1400.9 784.3 1399.8C785.6 1398.9 787 1398.5 788.5 1398.5C789 1398.5 789.4 1398.5 789.9 1398.6C792.9 1399.1 795.3 1401.5 795.9 1404.6C796.8 1409.6 797.5 1415 798 1422.1C798.2 1427.2 798.4 1432.8 798.5 1439.7ZM965.1 1496.2C937.2 1493.4 916.1 1470.1 916.1 1442C916.1 1413.9 937.2 1390.6 965.1 1387.8L966 1387.7V1387.5H1009.4C1039.4 1387.5 1063.8 1411.9 1063.8 1441.9C1063.8 1471.9 1039.4 1496.3 1009.4 1496.3H966V1496.1L965.1 1496.2ZM1067.4 966.9V1285.4C1067.4 1313.9 1045.6 1337.1 1018.8 1337.1H752C723.5 1337.1 700.3 1313.9 700.3 1285.4V966.9C700.3 938.4 723.5 915.2 752 915.2H1018.7C1045.6 915.2 1067.4 938.4 1067.4 966.9ZM734.4 1439.7C734.4 1446.3 734.2 1452 733.8 1457.3C733.4 1464 732.7 1469.6 731.6 1474.8C731.2 1476.7 730.1 1478.4 728.4 1479.5C726.7 1480.6 724.7 1481 722.8 1480.6C719.8 1480 717.5 1477.7 716.9 1474.8C715.9 1469.5 715.2 1464 714.7 1457.3C714.3 1452.1 714.1 1446.3 714.1 1439.7C714.1 1434.5 714.3 1428.4 714.7 1422.1C715 1417.3 715.6 1411 716.8 1404.6C717.2 1402.6 718.3 1400.9 720 1399.8C721.2 1399 722.7 1398.5 724.1 1398.5C724.6 1398.5 725 1398.5 725.5 1398.6C728.5 1399.2 730.9 1401.5 731.4 1404.5C732.6 1410.9 733.2 1417.2 733.5 1422C734.2 1428.4 734.3 1434.5 734.4 1439.7Z" fill="#1FAAFF"/>
<path d="M2714.1 2582.1H2622.2C2606.5 2582.1 2593.8 2569.4 2593.8 2553.7V2100.7C2593.8 2087.3 2604.6 2076.5 2618 2076.5H2658.2C2687.3 2076.5 2710.9 2052.9 2710.9 2023.8V1844.2C2710.9 1815.1 2687.3 1791.5 2658.2 1791.5H2516C2499.4 1791.5 2486.5 1777.9 2486.6 1761.3V1419.6C2486.6 1390.5 2463 1366.9 2433.9 1366.9H2286.9C2270.4 1366.9 2257.4 1353.3 2257.5 1336.7V1178.2C2257.5 1149.1 2233.9 1125.5 2204.8 1125.5H1942.4C1925.9 1125.5 1912.9 1111.9 1913 1095.3V593.5C1913 564.4 1889.4 540.8 1860.3 540.8H1701C1683.2 540.8 1666.1 534.6 1652.4 523.3C1625.3 501.1 1594.7 484.5 1562 473.9C1555.3 471.7 1551.5 464.6 1553.7 457.9L1564.8 423.2C1566.6 417.7 1573 415.1 1578.1 417.9L1593.9 426.6L1594.3 426.8C1595.4 427.4 1596.7 427.8 1598 428C1603.4 428.8 1608.5 425.1 1609.9 419.8L1632.6 340C1633.8 335.6 1631.3 330.9 1626.8 329.7C1622.5 328.5 1618.1 331.2 1616.6 335.4L1596.8 390.7C1594.9 396.1 1588.6 398.4 1583.6 395.7L1567 386.6C1566.4 386.3 1565.7 386 1565 385.7C1559.2 383.8 1552.9 387.1 1551.1 392.9L1531.3 454.7C1529.4 460.7 1523.5 464.3 1517.3 463.4C1503.6 461.4 1489.7 460.3 1475.6 460.3C1461.5 460.3 1447.6 461.3 1433.9 463.4C1427.7 464.3 1421.8 460.6 1419.9 454.7L1389.5 359.9C1389.3 359.3 1389 358.6 1388.6 358C1385.7 352.6 1378.9 350.7 1373.5 353.6L1341.6 371.1C1336.6 373.9 1330.3 371.4 1328.4 366L1297.7 277.4C1296.2 273.1 1291.3 270.7 1286.9 272.3C1282.7 273.9 1280.7 278.6 1282 282.9L1315.2 395.7C1315.4 396.4 1315.7 397.2 1316.1 397.9C1319 403.2 1325.6 405.1 1330.9 402.2L1331.1 402.1L1362.5 384.8C1367.6 382 1374 384.5 1375.8 390.1L1397.5 457.7C1399.7 464.4 1395.9 471.6 1389.2 473.7C1356.4 484.3 1325.9 500.9 1298.8 523.1C1285 534.3 1267.9 540.6 1250.1 540.6H990.7C961.6 540.6 938 564.2 938 593.3V804.3C938 821.1 924.4 834.8 907.5 834.8H481.9C452.8 834.8 429.2 858.4 429.2 887.5V1515.6C429.3 1532.1 416.4 1545.8 399.9 1545.8H337.8C308.7 1545.8 285.1 1569.4 285.1 1598.5V2168.2C285.1 2197.3 308.7 2220.9 337.8 2220.9H555.2C571.7 2220.9 584.6 2234.5 584.5 2251.1V2513.4C584.5 2542.5 608.1 2566.1 637.2 2566.1H1930.4C1959.5 2566.1 1983.1 2542.5 1983.1 2513.4C1983.1 2513.4 1983.1 2169.4 1983.1 2168.3V2106C1983.1 2089.5 1996.7 2076.5 2013.3 2076.6H2154.7C2168.1 2076.6 2178.9 2087.4 2178.9 2100.8V2641.1C2178.9 2664.3 2187.9 2686.2 2204.3 2702.5C2220.7 2719 2242.5 2727.9 2265.7 2727.9H2658.6C2682.5 2727.9 2704.3 2718.1 2720 2702.4C2735.7 2686.7 2745.4 2664.9 2745.4 2641V2613.3C2745.3 2596.1 2731.3 2582.1 2714.1 2582.1ZM340.3 2036.8C340.8 2033 343.8 2030.2 347.4 2029.7C355.1 2028.6 362.8 2028 370.5 2027.6C378.2 2027.2 385.9 2027 393.6 2027C401.3 2027 409 2027.1 416.7 2027.5C424.4 2027.9 432.1 2028.5 439.8 2029.7C444.4 2030.4 447.5 2034.7 446.8 2039.3C446.2 2043 443.3 2045.8 439.8 2046.3C432.1 2047.5 424.4 2048.1 416.7 2048.5C409 2048.9 401.3 2049.1 393.6 2049C385.9 2048.9 378.2 2048.8 370.5 2048.3C362.8 2047.9 355.1 2047.3 347.4 2046.2C342.8 2045.6 339.7 2041.4 340.3 2036.8ZM340.3 1971.2C340.8 1967.4 343.8 1964.6 347.4 1964.1C355.1 1963 362.8 1962.4 370.5 1962C378.2 1961.6 385.9 1961.4 393.6 1961.4C401.3 1961.4 409 1961.5 416.7 1961.9C424.4 1962.3 432.1 1962.9 439.8 1964.1C444.4 1964.8 447.5 1969.1 446.8 1973.7C446.2 1977.4 443.3 1980.2 439.8 1980.7C432.1 1981.9 424.4 1982.5 416.7 1982.9C409 1983.3 401.3 1983.5 393.6 1983.4C385.9 1983.3 378.2 1983.2 370.5 1982.7C362.8 1982.3 355.1 1981.7 347.4 1980.6C342.8 1980.1 339.7 1975.8 340.3 1971.2ZM446.9 2104.8C446.3 2108.5 443.4 2111.3 439.9 2111.8C432.2 2113 424.5 2113.6 416.8 2114C412.9 2114.2 409.1 2114.3 405.2 2114.4L393.6 2114.5C385.9 2114.4 378.2 2114.3 370.5 2113.9C362.8 2113.5 355.1 2112.9 347.4 2111.8C342.8 2111.1 339.6 2106.9 340.3 2102.3C340.8 2098.5 343.8 2095.7 347.4 2095.2C355.1 2094.1 362.8 2093.5 370.5 2093.1C378.2 2092.7 385.9 2092.5 393.6 2092.5L405.2 2092.6C409.1 2092.7 412.9 2092.8 416.8 2093C424.5 2093.4 432.2 2094 439.9 2095.2C444.5 2095.9 447.7 2100.2 446.9 2104.8ZM447 1908.1C446.4 1911.9 443.5 1914.6 439.9 1915.2C432.2 1916.4 424.5 1917 416.8 1917.4C409.1 1917.8 401.4 1918 393.7 1918C386 1917.9 378.3 1917.8 370.6 1917.4C362.9 1917 355.2 1916.4 347.5 1915.2C342.9 1914.5 339.7 1910.2 340.4 1905.6C341 1901.9 343.9 1899.1 347.5 1898.5C355.2 1897.3 362.9 1896.7 370.6 1896.3C378.3 1895.8 386 1895.7 393.7 1895.7C401.4 1895.8 409.1 1895.9 416.8 1896.3C424.5 1896.7 432.2 1897.3 439.9 1898.5C444.5 1899.2 447.7 1903.5 447 1908.1ZM2434 1389.4C2450.8 1389.4 2464.5 1403.1 2464.5 1419.9V1761.3C2464.5 1778.1 2450.8 1791.8 2434 1791.8H2013.6C1996.9 1791.8 1983.2 1778.2 1983.1 1761.5V1419.9C1983.2 1403.1 1996.8 1389.5 2013.6 1389.5H2434V1389.4ZM1336.3 523.6C1377.5 497 1425.5 482.7 1475.8 482.7C1526.1 482.7 1574.1 497 1615.3 523.6C1623.1 528.6 1619.4 540.8 1610.1 540.8H1341.5C1332.2 540.8 1328.5 528.7 1336.3 523.6ZM1151.4 593.5C1151.4 576.7 1165.1 563 1181.9 563H1860.5C1877.3 563 1891 576.7 1891 593.5V1095.4C1891 1112.2 1877.3 1125.9 1860.5 1125.9H1181.8C1165 1125.8 1151.4 1112.2 1151.4 1095.4V593.5ZM1605.9 1270.6C1602.6 1273.9 1598 1276 1592.9 1276H1471.7C1461.6 1276 1453.3 1267.8 1453.3 1257.6C1453.3 1252.5 1455.4 1247.9 1458.7 1244.6C1462 1241.3 1466.6 1239.2 1471.7 1239.2H1592.9C1603.1 1239.2 1611.3 1247.4 1611.3 1257.6C1611.3 1262.7 1609.2 1267.3 1605.9 1270.6ZM1611.3 1316.6V1338.9C1611.3 1354.5 1598.6 1367.2 1583 1367.2H1481.5C1465.9 1367.2 1453.3 1354.5 1453.3 1338.9V1316.6C1453.3 1306.4 1461.5 1298.2 1471.7 1298.2H1592.9C1603 1298.2 1611.3 1306.4 1611.3 1316.6ZM1592.8 1217.1H1471.6C1461.5 1217.1 1453.2 1208.9 1453.2 1198.7V1176.4C1453.2 1160.8 1465.8 1148.1 1481.4 1148.1H1583C1598.6 1148.1 1611.3 1160.8 1611.3 1176.4V1198.7C1611.3 1208.8 1603 1217.1 1592.8 1217.1ZM1151.4 1178.6C1151.4 1161.8 1165 1148.1 1181.9 1148.1H1402.8C1418.4 1148.1 1431.1 1160.8 1431.1 1176.4V1339C1431.1 1354.6 1418.4 1367.3 1402.8 1367.3H1181.9C1165.1 1368.1 1151.5 1355.1 1151.5 1338.3V1178.6H1151.4ZM642.7 887.7C642.7 870.9 656.3 857.2 673.2 857.2H1098.8C1115.6 857.2 1129.3 870.9 1129.3 887.7V1515.5C1129.3 1532.3 1115.6 1546 1098.8 1546H673.2C656.3 1546 642.7 1532.3 642.7 1515.5V887.7ZM599.3 857.2C599.2 857.2 599.2 857.3 599.3 857.2C599.2 857.2 599.2 857.2 599.2 857.2H599.3ZM561.9 957.8C562.3 948.6 562.9 939.5 564.6 930.3C565.4 925.7 569.8 922.6 574.4 923.5C578 924.2 580.6 927 581.2 930.3C582.8 939.5 583.5 948.6 583.9 957.8C584.2 967 584.5 976.1 584.5 985.3C584.5 994.5 584.3 1003.6 584 1012.8C583.7 1022 583.2 1031.1 581.1 1040.3C580.1 1044.9 575.6 1047.8 571 1046.8C567.7 1046.1 565.2 1043.4 564.5 1040.3C562.5 1031.1 561.9 1022 561.7 1012.8C561.4 1003.6 561.2 994.5 561.2 985.3C561.4 976.1 561.6 967 561.9 957.8ZM492.5 1046.8C489.2 1046.1 486.7 1043.4 486 1040.3C484 1031.1 483.4 1022 483.2 1012.8C482.9 1003.6 482.7 994.5 482.7 985.3C482.7 976.1 483 967 483.3 957.8C483.7 948.6 484.3 939.5 486 930.3C486.8 925.7 491.2 922.6 495.8 923.5C499.4 924.2 502 927 502.6 930.3C504.2 939.5 504.9 948.6 505.3 957.8C505.6 967 505.9 976.1 505.9 985.3C505.9 994.5 505.8 1003.6 505.5 1012.8C505.2 1022 504.7 1031.1 502.6 1040.3C501.7 1044.9 497.1 1047.8 492.5 1046.8ZM529.1 2198.8C512.3 2198.8 498.6 2185.1 498.6 2168.3V1598.6C498.6 1581.8 512.3 1568.1 529.1 1568.1H1098.8C1115.6 1568.1 1129.3 1581.8 1129.3 1598.6V2168.3C1129.3 2185.1 1115.6 2198.8 1098.8 2198.8H529.1ZM1960.9 2513.4C1960.9 2530.3 1947.3 2543.9 1930.4 2543.9H828.4C811.6 2543.8 798 2530.2 798 2513.4V2251.5C798 2234.7 811.6 2221.1 828.4 2221H1212.1C1228.6 2221 1242.1 2234.4 1242.1 2251V2355.9C1242.1 2380.4 1261.9 2400.2 1286.4 2400.2H1819.7C1844.2 2400.2 1864.1 2380.4 1864.1 2355.9V2251C1864.1 2234.4 1877.5 2221 1894.1 2221H1930.3C1930.8 2221 1931.4 2220.9 1931.9 2220.9C1947.9 2220.9 1960.8 2233.7 1960.8 2249.9V2513.4H1960.9ZM1264.3 2355.9V2252C1264.3 2235.4 1277.7 2222 1294.3 2222H1812C1828.6 2222 1842 2235.4 1842 2252V2355.9C1842 2368.2 1832.1 2378.1 1819.8 2378.1H1286.5C1274.2 2378 1264.3 2368.1 1264.3 2355.9ZM1960.9 2168.3C1960.9 2185.1 1947.2 2198.8 1930.4 2198.8H1182C1165.2 2198.8 1151.5 2185.1 1151.5 2168.3V1419.8C1151.5 1403 1165.2 1389.3 1182 1389.3H1930.4C1947.2 1389.3 1960.9 1403 1960.9 1419.8V2168.3ZM1661.7 1367.2C1646.1 1367.2 1633.4 1354.5 1633.4 1338.9V1176.3C1633.4 1160.7 1646.1 1148 1661.7 1148H2204.9C2221.8 1148 2235.4 1161.7 2235.4 1178.5V1336.6C2235.4 1353.5 2221.8 1367.1 2204.9 1367.1H1661.7V1367.2ZM2571.6 2553.8C2571.6 2569.5 2558.9 2582.2 2543.2 2582.2H2361.5C2344.2 2582.2 2330.2 2596.2 2330.2 2613.5V2639.7C2330.2 2675.5 2301.8 2705.2 2266.9 2705.9C2249.1 2706.3 2232.4 2699.5 2219.8 2686.9C2207.6 2674.7 2200.9 2658.5 2200.9 2641.2V2030.4C2200.9 1999.9 2189.3 1972 2170.3 1951C2164.4 1944.5 2169 1934.3 2177.7 1934.3H2475.5C2498.4 1934.3 2519.5 1942.4 2536 1955.8C2536.9 1956.5 2537.7 1957.3 2538.6 1958C2558.8 1975.6 2571.6 2001.5 2571.6 2030.4V2553.8ZM2592.9 1934.2C2592.9 1918.5 2586.8 1903.8 2575.7 1892.8C2564.6 1881.7 2549.9 1875.6 2534.2 1875.6H2137.3C2112.8 1875.6 2091.8 1890.7 2083 1912.1H2082.5V1913.3C2080 1919.8 2078.6 1926.9 2078.6 1934.3C2078.6 1950 2084.7 1964.7 2095.8 1975.8C2106.9 1986.9 2121.6 1993 2137.2 1993H2148.2C2163.4 1993 2176.2 2004.4 2177.9 2019.5C2178.3 2023.1 2178.5 2026.7 2178.5 2030.4C2178.5 2037.1 2175.8 2043.1 2171.4 2047.5C2167 2051.9 2161 2054.6 2154.3 2054.6H2013.2C1996.4 2054.6 1982.7 2040.9 1982.7 2024.1V1844.5C1982.7 1827.7 1996.4 1814 2013.2 1814H2657.8C2674.7 1814 2688.3 1827.7 2688.3 1844.5V2024C2688.3 2040.8 2674.7 2054.5 2657.8 2054.5H2618C2604.7 2054.5 2593.8 2043.7 2593.8 2030.3C2593.8 2028.8 2593.6 2005.1 2593.4 1981.6C2593.2 1958.1 2592.9 1934.9 2592.9 1934.2Z" fill="black"/>
<path d="M2638.7 1919.6C2646.38 1919.6 2652.6 1913.38 2652.6 1905.7C2652.6 1898.02 2646.38 1891.8 2638.7 1891.8C2631.02 1891.8 2624.8 1898.02 2624.8 1905.7C2624.8 1913.38 2631.02 1919.6 2638.7 1919.6Z" fill="black"/>
<path d="M2638.7 1971.7C2646.38 1971.7 2652.6 1965.48 2652.6 1957.8C2652.6 1950.12 2646.38 1943.9 2638.7 1943.9C2631.02 1943.9 2624.8 1950.12 2624.8 1957.8C2624.8 1965.48 2631.02 1971.7 2638.7 1971.7Z" fill="black"/>
<path d="M2515 1353C2524.1 1345.9 2532.7 1338.4 2541.3 1330.7C2549.9 1323.1 2558.2 1315.3 2566.5 1307.4L2578.8 1295.4C2582.8 1291.3 2586.9 1287.3 2590.9 1283.2C2598.9 1275 2606.7 1266.6 2614.2 1257.8C2616.7 1254.8 2616.9 1250.4 2614.4 1247.2C2611.5 1243.6 2606.3 1242.9 2602.6 1245.8C2593.5 1252.9 2584.8 1260.4 2576.3 1268C2572 1271.8 2567.8 1275.7 2563.6 1279.6L2551.1 1291.4C2542.9 1299.4 2534.7 1307.4 2526.7 1315.7C2518.7 1323.9 2510.9 1332.3 2503.4 1341C2500.8 1344 2500.7 1348.4 2503.2 1351.6C2506.2 1355.2 2511.4 1355.8 2515 1353Z" fill="black"/>
<path d="M2587.6 1397.8C2582.7 1397.4 2577.7 1397.2 2572.8 1397.2C2567.9 1397.2 2562.9 1397.4 2558 1397.8C2553.1 1398.2 2548.1 1398.8 2543.2 1399.9C2540.1 1400.6 2537.6 1403 2536.8 1406.3C2535.7 1410.9 2538.6 1415.5 2543.2 1416.5C2548.2 1417.6 2553.1 1418.2 2558 1418.6C2562.9 1419 2567.9 1419.2 2572.8 1419.2C2577.7 1419.2 2582.7 1419 2587.6 1418.6C2592.5 1418.2 2597.5 1417.6 2602.4 1416.4C2605.4 1415.7 2608 1413.3 2608.7 1410.1C2609.8 1405.5 2607 1400.9 2602.4 1399.8C2597.4 1398.9 2592.5 1398.2 2587.6 1397.8Z" fill="black"/>
<path d="M2506.5 2431.7C2465.8 2429.5 2425.1 2429 2384.4 2428.9C2364 2428.9 2343.7 2429.1 2323.3 2429.5C2302.9 2429.9 2282.6 2430.6 2262.2 2431.7C2258 2431.9 2254.6 2435.3 2254.3 2439.6C2254.1 2444.2 2257.6 2448.1 2262.2 2448.4C2282.6 2449.5 2302.9 2450.2 2323.3 2450.6C2343.6 2451 2364 2451.2 2384.4 2451.2C2425.1 2451.1 2465.8 2450.6 2506.5 2448.4C2510.7 2448.2 2514.2 2444.8 2514.4 2440.5C2514.6 2435.9 2511.1 2432 2506.5 2431.7Z" fill="black"/>
<path d="M2506.5 2132.4C2465.8 2130.2 2425.1 2129.7 2384.4 2129.6C2364 2129.7 2343.7 2129.8 2323.3 2130.2C2302.9 2130.6 2282.6 2131.3 2262.2 2132.4C2258 2132.6 2254.6 2136 2254.3 2140.3C2254.1 2144.9 2257.6 2148.8 2262.2 2149.1C2282.6 2150.2 2302.9 2150.9 2323.3 2151.3C2343.6 2151.7 2364 2151.9 2384.4 2151.9C2425.1 2151.8 2465.8 2151.3 2506.5 2149.1C2510.7 2148.9 2514.2 2145.5 2514.4 2141.2C2514.6 2136.6 2511.1 2132.7 2506.5 2132.4Z" fill="black"/>
<path d="M2506.5 2506.7C2493.9 2505.5 2481.4 2504.9 2468.9 2504.5C2456.3 2504.1 2443.8 2503.9 2431.2 2503.9C2418.6 2504 2406.1 2504.1 2393.6 2504.5C2381 2504.9 2368.5 2505.5 2356 2506.6C2352 2507 2348.8 2510.1 2348.4 2514.2C2348 2518.8 2351.4 2522.8 2356 2523.3C2368.5 2524.4 2381.1 2525 2393.6 2525.4C2406.2 2525.8 2418.7 2526 2431.2 2526C2443.8 2526 2456.3 2525.8 2468.9 2525.4C2481.4 2525 2494 2524.4 2506.5 2523.2C2510.4 2522.8 2513.7 2519.7 2514 2515.7C2514.4 2511.2 2511.1 2507.2 2506.5 2506.7Z" fill="black"/>
<path d="M2449.9 2301.8C2459.3 2301.7 2468.8 2301.6 2478.2 2301.2C2487.6 2300.8 2497.1 2300.2 2506.5 2299.1C2510.2 2298.6 2513.3 2295.7 2513.8 2291.8C2514.4 2287.2 2511.1 2283 2506.5 2282.5C2497.1 2281.3 2487.6 2280.8 2478.2 2280.3C2468.8 2279.9 2459.3 2279.7 2449.9 2279.7C2440.5 2279.7 2431 2279.8 2421.6 2280.3C2412.2 2280.7 2402.8 2281.3 2393.4 2282.5C2389.7 2282.9 2386.6 2285.9 2386.1 2289.8C2385.5 2294.4 2388.8 2298.6 2393.4 2299.1C2402.8 2300.2 2412.3 2300.8 2421.6 2301.3C2431.1 2301.7 2440.5 2301.8 2449.9 2301.8Z" fill="black"/>
<path d="M2473.5 2054.6C2468 2054.6 2462.5 2054.8 2457 2055.3C2451.5 2055.7 2446 2056.3 2440.5 2057.4C2437.2 2058.1 2434.5 2060.6 2433.8 2064.1C2432.9 2068.7 2435.9 2073.1 2440.5 2074.1C2446 2075.2 2451.5 2075.8 2457 2076.2C2462.5 2076.6 2468 2076.8 2473.5 2076.9C2479 2077 2484.5 2076.8 2490 2076.4C2495.5 2076 2501 2075.4 2506.5 2074.2C2509.6 2073.5 2512.2 2071.1 2513 2067.7C2514 2063.1 2511.1 2058.6 2506.5 2057.6C2501 2056.4 2495.5 2055.8 2490 2055.4C2484.5 2054.8 2479 2054.6 2473.5 2054.6Z" fill="black"/>
<path d="M2262.1 1999C2279.5 2000.1 2296.9 2000.8 2314.2 2001.2C2331.6 2001.6 2349 2001.8 2366.3 2001.8C2401.1 2001.7 2435.8 2001.2 2470.6 1999C2474.8 1998.8 2478.1 1995.5 2478.4 1991.2C2478.7 1986.6 2475.2 1982.6 2470.6 1982.4C2435.8 1980.2 2401.1 1979.7 2366.3 1979.6C2348.9 1979.6 2331.5 1979.8 2314.2 1980.2C2296.8 1980.6 2279.4 1981.3 2262.1 1982.4C2258 1982.6 2254.6 1985.9 2254.3 1990.2C2254.1 1994.8 2257.6 1998.7 2262.1 1999Z" fill="black"/>
<path d="M2437.8 1314.1C2438.5 1317 2440.8 1319.5 2444 1320.3C2448.6 1321.5 2453.3 1318.7 2454.5 1314.1C2455.7 1309.2 2456.4 1304.2 2456.8 1299.3C2457.2 1294.3 2457.3 1289.4 2457.3 1284.5C2457.2 1279.6 2457.1 1274.6 2456.6 1269.7C2456.2 1264.7 2455.6 1259.8 2454.5 1254.9C2453.8 1251.7 2451.3 1249.1 2448 1248.4C2443.4 1247.4 2438.9 1250.3 2437.9 1254.9C2436.8 1259.8 2436.3 1264.8 2435.8 1269.7C2435.4 1274.6 2435.2 1279.6 2435.1 1284.5C2435 1289.4 2435.2 1294.4 2435.6 1299.3C2436 1304.3 2436.6 1309.2 2437.8 1314.1Z" fill="black"/>
<path d="M2431.2 2207.4C2417.1 2206.3 2403 2205.7 2388.9 2205.3C2374.8 2204.9 2360.7 2204.7 2346.6 2204.7C2332.5 2204.7 2318.4 2204.8 2304.3 2205.3C2290.2 2205.7 2276.1 2206.3 2262 2207.5C2258 2207.8 2254.7 2211 2254.4 2215.2C2254 2219.8 2257.4 2223.8 2262 2224.2C2276.1 2225.4 2290.2 2226 2304.3 2226.4C2318.4 2226.8 2332.5 2227 2346.6 2227C2360.7 2226.9 2374.8 2226.8 2388.9 2226.4C2403 2226 2417.1 2225.4 2431.2 2224.2C2435.2 2223.9 2438.5 2220.7 2438.9 2216.6C2439.3 2211.8 2435.8 2207.8 2431.2 2207.4Z" fill="black"/>
<path d="M2092.8 1730.8H2353.7C2382.8 1730.8 2406.4 1707.2 2406.4 1678.1V1503.1C2406.4 1474 2382.8 1450.4 2353.7 1450.4H2092.8C2063.7 1450.4 2040.1 1474 2040.1 1503.1V1678.1C2040.1 1707.1 2063.7 1730.8 2092.8 1730.8ZM2062.3 1503C2062.3 1486.2 2075.9 1472.5 2092.8 1472.5H2315.9C2332.7 1472.5 2346.4 1486.2 2346.4 1503V1531.2C2346.4 1539.4 2341.1 1546.6 2333.3 1549C2315.6 1554.7 2302.8 1571.2 2302.8 1590.8V1613C2302.8 1621.9 2295.6 1629.2 2286.6 1629.2H2285.9C2277 1629.2 2269.7 1622 2269.7 1613V1539.3C2269.7 1518.7 2253.9 1500.9 2233.3 1499.9C2211.3 1498.8 2193 1516.4 2193 1538.2V1646.3C2193 1655 2186.1 1662.1 2177.2 1662.5C2168 1662.8 2160.4 1654.8 2160.4 1645.6V1572.6C2160.4 1552 2144.6 1534.2 2124 1533.2C2102 1532.1 2083.7 1549.7 2083.7 1571.5V1593.1C2083.7 1599.5 2081 1605.3 2076.7 1609.3C2071.2 1614.5 2062.2 1610.6 2062.2 1603.1V1503H2062.3ZM2062.3 1658C2062.3 1647.5 2068.7 1638.1 2078.5 1634.1C2094.6 1627.5 2106 1611.6 2106 1593.1V1572C2106 1563.8 2111.9 1556.4 2120.1 1555.4C2129.9 1554.1 2138.4 1561.8 2138.4 1571.4V1646.2C2138.4 1667 2155 1684 2175.9 1684.5C2197.6 1685.1 2215.3 1666.7 2215.3 1645V1538.6C2215.3 1530.4 2221.2 1523 2229.4 1522C2239.2 1520.7 2247.7 1528.4 2247.7 1538V1612.9C2247.7 1634.1 2264.9 1651.2 2286 1651.2H2286.7C2307.9 1651.2 2325 1634 2325 1612.9V1590.7C2325 1584.1 2328 1578.2 2332.6 1574.2C2338 1569.6 2346.4 1573.8 2346.4 1580.9V1677.9C2346.4 1694.7 2332.7 1708.4 2315.9 1708.4H2092.8C2075.9 1708.4 2062.3 1694.7 2062.3 1677.9V1658Z" fill="black"/>
<path d="M2262.1 2374.1C2273 2375.3 2284 2375.9 2294.9 2376.3C2305.8 2376.7 2316.8 2376.9 2327.7 2376.9C2338.7 2376.8 2349.6 2376.7 2360.5 2376.3C2371.5 2375.9 2382.4 2375.3 2393.3 2374.2C2397.2 2373.8 2400.3 2370.7 2400.7 2366.7C2401.2 2362.1 2397.8 2358 2393.3 2357.5C2382.4 2356.4 2371.4 2355.8 2360.5 2355.3C2349.6 2354.9 2338.7 2354.7 2327.7 2354.7C2316.8 2354.7 2305.8 2354.9 2294.9 2355.3C2283.9 2355.7 2273 2356.3 2262.1 2357.5C2258.3 2357.9 2255.1 2360.9 2254.7 2364.9C2254.2 2369.5 2257.6 2373.6 2262.1 2374.1Z" fill="black"/>
<path d="M2360.6 2055.2C2355.1 2055 2349.7 2054.9 2344.2 2054.7L2327.8 2054.6C2316.9 2054.7 2305.9 2054.8 2295 2055.2C2284 2055.6 2273.1 2056.2 2262.2 2057.3C2258.3 2057.7 2255.2 2060.7 2254.7 2064.8C2254.2 2069.4 2257.6 2073.5 2262.2 2074C2273.1 2075.1 2284.1 2075.7 2295 2076.1C2305.9 2076.5 2316.9 2076.7 2327.8 2076.7L2344.2 2076.6C2349.7 2076.4 2355.1 2076.4 2360.6 2076.1C2371.6 2075.7 2382.5 2075.1 2393.4 2073.9C2397.2 2073.5 2400.4 2070.5 2400.8 2066.5C2401.3 2061.9 2398 2057.8 2393.4 2057.3C2382.4 2056.2 2371.5 2055.6 2360.6 2055.2Z" fill="black"/>
<path d="M2009.8 854.7C2002 870 1997.6 886.7 1996.3 903.5C1995 920.3 1996.6 937.1 2000.4 953.2C2004.3 969.3 2010.1 984.7 2017.7 999.2C2025.4 1013.6 2034.8 1026.8 2045.7 1038.6C2048.3 1041.4 2052.6 1042.1 2056 1040.1C2060 1037.8 2061.3 1032.6 2059 1028.6L2058.9 1028.5C2051.3 1015.4 2043.8 1002.5 2037.4 989.1C2034.1 982.5 2031.3 975.7 2028.6 968.9C2026 962.1 2024 955.1 2022.3 948C2018.9 933.9 2017.7 919.5 2018.8 905.3C2019.9 891.2 2023.7 877.4 2030 864.9C2036.3 852.5 2045.3 841.5 2056.2 832.9C2067.1 824.3 2079.9 818 2093.4 814.5C2102.2 812.2 2117.2 811.7 2126.7 811.5C2131.4 811.4 2135.2 815.4 2135.1 820.1V820.2C2134.3 854.3 2146.5 887.1 2163.8 914.5C2168.1 921.3 2172.6 928 2177.4 934.5C2182.2 941 2187.3 947.4 2192.9 953.5C2203.9 965.6 2216.5 976.9 2231.7 985.4C2239.3 989.6 2247.7 993.1 2256.9 994.8C2266 996.6 2276.4 996.5 2286.4 992.6C2291.3 990.7 2296 987.7 2299.9 984C2303.8 980.3 2307 975.8 2309.2 971.2C2313.7 961.8 2314.9 951.9 2314.3 942.7C2313 924.2 2305.9 908.1 2297.3 893.8C2288.5 879.5 2277.8 866.9 2266.2 855.5C2260.4 849.8 2254.4 844.4 2248.2 839.2C2242 834 2235.6 829.2 2229 824.4C2222.4 819.7 2215.4 815.4 2208.3 811.4C2201.1 807.5 2193.7 803.9 2186.1 800.7C2180.7 798.5 2175.2 796.6 2169.6 794.9C2165.8 793.7 2163.8 789.7 2165.1 786C2165.8 783.9 2166.7 781.8 2167.5 779.8C2173.1 767 2181.3 755.5 2191.5 746C2208.7 729.9 2231.6 720 2255.2 717.7C2258.2 717.4 2260.9 719.5 2261.4 722.4C2264.1 737.3 2270 751.2 2277.5 763.6C2281.9 770.8 2286.7 777.5 2292 783.9C2297.3 790.2 2303.2 796.5 2309.9 801.9C2316.6 807.4 2324 812.2 2332.5 815.8C2340.9 819.3 2350.4 821.5 2360.7 820.6C2365.8 820.1 2371.1 818.8 2376.1 816.1C2381 813.5 2385.6 809.5 2388.8 804.5C2392 799.5 2393.7 793.7 2394.2 788.3C2394.6 782.8 2393.8 777.5 2392.5 772.7C2389.6 763.1 2384.6 755.3 2379.1 748.4C2376.3 745 2373.3 741.9 2370.2 738.9C2367.1 736 2364.1 733.3 2360.9 730.6C2348.3 720 2334 710.9 2318.4 704.5C2309 700.6 2299.2 697.8 2289.1 696C2285.7 695.4 2283.5 692 2284.4 688.7C2285.7 684 2287.6 679.6 2290.2 675.6C2296.9 664.9 2307.9 657.4 2320.6 653.7C2333.4 650 2347.6 649.9 2362.1 651.8H2362.2C2366.1 652.3 2369.9 650 2371.2 646.2C2372.7 641.8 2370.3 637.1 2365.9 635.6C2350.2 630.4 2332.5 628.7 2315.1 632.8C2306.5 634.8 2298 638.6 2290.4 643.8C2282.9 649 2276.3 655.9 2271.4 663.7C2266.4 671.5 2263.1 680.2 2261.4 689C2261.4 689.2 2261.3 689.4 2261.3 689.5C2260.8 692.1 2258.6 694.1 2255.9 694.3C2226.3 696.4 2197.5 708.5 2175.6 728.8C2163 740.4 2152.8 754.6 2145.9 770.3C2144 774.6 2142.3 779.1 2140.9 783.6C2140 786.5 2137.3 788.5 2134.2 788.5C2123.8 788.4 2100.2 788.7 2087.5 792C2071 796.3 2055.3 804 2041.9 814.7C2028.6 825.8 2017.6 839.5 2009.8 854.7ZM2292.9 720.8C2312.3 725.6 2330.6 735.4 2346.2 748.6C2349 750.9 2351.7 753.4 2354.3 755.8C2356.8 758.2 2359.2 760.7 2361.3 763.3C2365.6 768.4 2368.9 774.1 2370.5 779.4C2372.1 784.8 2371.6 789.5 2369.6 792.5C2367.7 795.6 2363.7 797.9 2358.5 798.4C2353.2 798.9 2347.1 797.7 2341.2 795.3C2335.3 792.9 2329.6 789.2 2324.2 784.9C2318.9 780.5 2314 775.5 2309.3 769.9C2304.6 764.3 2300.4 758.5 2296.7 752.4C2292 744.7 2288.2 736.6 2285.7 728.3C2284.6 723.9 2288.5 719.7 2292.9 720.8ZM2168.9 819.4C2171.7 820.4 2174.5 821.4 2177.3 822.6C2184 825.4 2190.6 828.6 2197 832.2C2203.4 835.8 2209.6 839.7 2215.7 844C2221.7 848.3 2227.7 852.8 2233.4 857.6C2239.2 862.4 2244.7 867.4 2249.9 872.6C2260.4 883 2269.9 894.3 2277.3 906.5C2284.7 918.6 2290.1 931.9 2290.9 944.6C2291.3 950.9 2290.4 956.8 2288.1 961.5C2285.8 966.1 2282.4 969.4 2277.8 971.2C2273.2 973 2267.4 973.3 2261.4 972.1C2255.4 970.9 2249.2 968.4 2243.2 965.1C2231.3 958.4 2220.4 948.7 2210.6 937.9C2205.7 932.5 2201.1 926.7 2196.7 920.8C2192.3 914.8 2188.1 908.6 2184.2 902.3C2180.2 896 2176.7 889.7 2173.5 883.1C2170.3 876.6 2167.6 869.9 2165.4 863.1C2162.5 854.1 2160.6 837.5 2159.7 826.8C2159.3 821.5 2164.2 817.7 2168.9 819.4Z" fill="black"/>
<path d="M2262.1 2299.1C2269.4 2300.2 2276.7 2300.8 2284.1 2301.3C2291.4 2301.7 2298.7 2301.9 2306.1 2301.9C2313.4 2301.8 2320.7 2301.7 2328 2301.3C2335.3 2300.9 2342.6 2300.3 2350 2299.2C2353.5 2298.6 2356.4 2295.9 2357 2292.2C2357.7 2287.6 2354.6 2283.3 2350 2282.6C2342.7 2281.4 2335.4 2280.9 2328 2280.4C2320.7 2280 2313.4 2279.8 2306.1 2279.8C2298.8 2279.8 2291.5 2279.9 2284.1 2280.4C2276.8 2280.8 2269.5 2281.4 2262.1 2282.6C2258.6 2283.2 2255.7 2285.9 2255.1 2289.6C2254.4 2294.1 2257.6 2298.4 2262.1 2299.1Z" fill="black"/>
<path d="M2310.5 2506.7C2306.5 2505.5 2302.4 2504.9 2298.4 2504.5C2294.4 2504.1 2290.3 2503.9 2286.3 2503.9C2282.3 2503.9 2278.2 2504.1 2274.2 2504.5C2270.2 2504.9 2266.1 2505.5 2262.1 2506.6C2259.3 2507.4 2257 2509.6 2256.1 2512.6C2254.8 2517.2 2257.5 2522 2262.1 2523.3C2266.1 2524.4 2270.2 2525 2274.2 2525.4C2278.2 2525.8 2282.3 2526 2286.3 2526C2290.3 2526 2294.4 2525.8 2298.4 2525.4C2302.4 2525 2306.5 2524.4 2310.5 2523.2C2313.2 2522.4 2315.6 2520.2 2316.4 2517.3C2317.8 2512.9 2315.1 2508.1 2310.5 2506.7Z" fill="black"/>
<path d="M2132.3 1199H1732.6C1711.6 1199 1694.6 1216.1 1694.6 1237V1278.3C1694.6 1299.2 1711.7 1316.3 1732.6 1316.3H1746.8H2087.3H2087.4H2132.3C2153.2 1316.3 2170.3 1299.2 2170.3 1278.3V1237C2170.3 1216 2153.2 1199 2132.3 1199ZM2105.4 1276.1C2105.4 1286 2097.4 1294.1 2087.5 1294.2H1732.7C1724 1294.2 1716.8 1287.1 1716.8 1278.4V1237C1716.8 1228.3 1723.9 1221.1 1732.7 1221.1H2087.6C2097.5 1221.2 2105.4 1229.3 2105.4 1239.2V1276.1Z" fill="black"/>
<path d="M2058.1 1250.1C2009 1247.9 1959.9 1247.4 1910.8 1247.3C1886.3 1247.3 1861.7 1247.4 1837.2 1247.9C1812.7 1248.3 1788.1 1249 1763.6 1250.1C1759.4 1250.3 1755.9 1253.7 1755.7 1258C1755.5 1262.6 1759.1 1266.5 1763.6 1266.7C1788.2 1267.8 1812.7 1268.5 1837.2 1268.9C1861.8 1269.3 1886.3 1269.5 1910.8 1269.5C1959.9 1269.4 2009 1268.9 2058.1 1266.8C2062.3 1266.6 2065.9 1263.2 2066 1258.8C2066.2 1254.2 2062.6 1250.3 2058.1 1250.1Z" fill="black"/>
<path d="M1945 529.2C1954.1 522.1 1962.8 514.6 1971.3 507C1975.6 503.2 1979.8 499.3 1984 495.4L1996.5 483.6C2004.7 475.6 2012.9 467.6 2020.9 459.3C2028.9 451.1 2036.7 442.7 2044.2 434C2046.8 431 2046.9 426.6 2044.4 423.4C2041.5 419.8 2036.3 419.2 2032.6 422C2023.6 429.1 2014.9 436.6 2006.3 444.3C1997.7 451.9 1989.4 459.7 1981.1 467.6L1968.8 479.6C1964.8 483.7 1960.7 487.7 1956.7 491.8C1948.7 500 1940.9 508.4 1933.4 517.2C1930.9 520.2 1930.7 524.6 1933.2 527.8C1936.1 531.4 1941.4 532 1945 529.2Z" fill="black"/>
<path d="M2017.5 595.1C2022.4 594.7 2027.4 594.1 2032.3 592.9C2035.3 592.2 2037.8 589.8 2038.6 586.6C2039.7 582 2036.9 577.4 2032.3 576.3C2027.4 575.1 2022.4 574.4 2017.5 574.1C2012.6 573.8 2007.6 573.5 2002.7 573.6C1997.8 573.7 1992.8 573.8 1987.9 574.3C1983 574.7 1978 575.3 1973.1 576.4C1970 577.1 1967.4 579.5 1966.6 582.9C1965.6 587.5 1968.5 592 1973.1 593.1C1978.1 594.2 1983 594.8 1987.9 595.2C1992.8 595.6 1997.8 595.8 2002.7 595.9C2007.6 595.6 2012.6 595.5 2017.5 595.1Z" fill="black"/>
<path d="M1867.8 490.3C1868.5 493.2 1870.8 495.7 1874 496.5C1878.6 497.7 1883.3 494.9 1884.4 490.3C1885.6 485.4 1886.3 480.4 1886.7 475.5C1887.1 470.6 1887.3 465.6 1887.2 460.7C1887.1 455.8 1887 450.8 1886.5 445.9C1886.1 441 1885.5 436 1884.4 431.1C1883.7 427.9 1881.2 425.3 1877.9 424.6C1873.3 423.6 1868.8 426.5 1867.8 431.1C1866.7 436 1866.2 441 1865.7 445.9C1865.3 450.9 1865.1 455.8 1865 460.7C1864.9 465.6 1865.1 470.6 1865.5 475.5C1865.9 480.4 1866.6 485.4 1867.8 490.3Z" fill="black"/>
<path d="M1817 1470.6H1285.3C1256.2 1470.6 1232.6 1494.3 1232.6 1523.3V1943.6C1232.6 1972.6 1256.2 1996.3 1285.3 1996.3H1817C1846.1 1996.3 1869.7 1972.7 1869.7 1943.6V1523.3C1869.7 1494.2 1846.1 1470.6 1817 1470.6ZM1796.5 1943.6C1796.5 1960.4 1782.8 1974.1 1766 1974.1H1285.4C1268.6 1974.1 1254.9 1960.4 1254.9 1943.6V1523.3C1254.9 1506.5 1268.6 1492.8 1285.4 1492.8H1766C1782.8 1492.8 1796.5 1506.5 1796.5 1523.3V1943.6Z" fill="black"/>
<path d="M1808.8 2046.4H1764.9C1764.9 2046.4 1764.9 2046.4 1764.8 2046.4H1638.7H1551.1C1522.1 2046.4 1498.5 2070 1498.5 2099C1498.5 2128 1522.1 2151.6 1551.1 2151.6H1808.8C1837.8 2151.6 1861.4 2128 1861.4 2099C1861.4 2070 1837.8 2046.4 1808.8 2046.4ZM1786.4 2120.5C1780.6 2126.2 1773 2129.4 1764.9 2129.4H1551.2C1534.4 2129.4 1520.8 2115.8 1520.8 2099C1520.8 2082.2 1534.4 2068.6 1551.2 2068.6H1765C1781.7 2068.6 1795.4 2082.3 1795.4 2099C1795.3 2107.1 1792.2 2114.7 1786.4 2120.5Z" fill="black"/>
<path d="M1276.8 1053.1H1763.9C1792.9 1053.1 1816.6 1027.8 1816.6 996.8V692.1C1816.6 661.1 1793 635.8 1763.9 635.8H1276.8C1247.8 635.8 1224.1 659.4 1224.1 688.5V1000.4C1224.1 1029.5 1247.7 1053.1 1276.8 1053.1ZM1246.3 688.5C1246.3 671.7 1260 658 1276.8 658H1715.3C1732.1 658.1 1745.7 671.7 1745.7 688.5V1000.4C1745.7 1017.2 1732.1 1030.8 1715.3 1030.9H1276.8C1260 1030.9 1246.3 1017.2 1246.3 1000.4V688.5Z" fill="black"/>
<path d="M1763.1 2441H1606C1588.1 2441 1573.5 2455.6 1573.5 2473.5C1573.5 2491.4 1588.1 2506.1 1606 2506.1H1763.1C1781 2506.1 1795.6 2491.5 1795.6 2473.5C1795.6 2455.6 1781 2441 1763.1 2441ZM1763.1 2483.9H1606C1600.3 2483.9 1595.7 2479.2 1595.7 2473.5C1595.7 2467.8 1600.3 2463.2 1606 2463.2H1763.1C1768.8 2463.2 1773.4 2467.8 1773.4 2473.5C1773.4 2479.3 1768.8 2483.9 1763.1 2483.9Z" fill="black"/>
<path d="M1722.5 2337.4C1724.2 2338.4 1726.1 2338.9 1728 2338.9C1729.9 2338.9 1731.8 2338.4 1733.5 2337.4L1781.7 2309.6C1785.1 2307.6 1787.2 2304 1787.2 2300C1787.2 2296 1785.1 2292.4 1781.7 2290.4L1733.5 2262.6C1730.1 2260.6 1725.8 2260.6 1722.4 2262.6C1719 2264.6 1716.9 2268.2 1716.9 2272.2V2327.8C1716.9 2331.8 1719 2335.4 1722.5 2337.4Z" fill="black"/>
<path d="M1634.5 808.9C1638.1 811.8 1643.4 811.3 1646.3 807.7C1652 800.8 1657.2 793.5 1662.2 786.1C1667.2 778.8 1672 771.2 1676.6 763.6C1681.2 756 1685.7 748.4 1690 740.5C1694.3 732.7 1698.5 724.8 1702.2 716.7C1703.8 713.3 1702.9 709.1 1699.8 706.7C1696.2 703.8 1690.9 704.4 1688 708C1682.4 715 1677.3 722.3 1672.3 729.6C1667.3 736.9 1662.5 744.4 1657.8 752C1653.1 759.6 1648.6 767.2 1644.3 775C1640 782.8 1635.9 790.7 1632.2 798.9C1630.7 802.4 1631.6 806.5 1634.5 808.9Z" fill="black"/>
<path d="M1705.4 1577.9C1703.5 1573.4 1700.7 1569.3 1697.3 1565.8C1693.8 1562.4 1689.7 1559.6 1685.2 1557.6C1680.7 1555.7 1675.8 1554.7 1671 1554.7C1670.4 1554.7 1669.7 1554.7 1669.3 1554.7L1668.1 1554.8L1665.7 1554.9L1661 1555.1L1651.7 1555.5C1639.3 1556.2 1626.8 1557 1614.3 1558.2C1609.4 1558.7 1605.4 1562.6 1604.9 1567.6C1604.3 1573.3 1608.5 1578.4 1614.3 1579C1626.7 1580.2 1639.2 1581 1651.7 1581.7L1669.9 1582.6C1672.6 1582.9 1675.1 1584.2 1677 1586.1C1678.9 1588 1680.2 1590.5 1680.5 1593.2L1681.4 1611.4C1682.1 1623.8 1682.8 1636.3 1684.1 1648.8C1684.6 1653.7 1688.4 1657.7 1693.5 1658.2C1699.2 1658.8 1704.3 1654.6 1704.9 1648.8C1706.1 1636.3 1706.9 1623.9 1707.6 1611.4L1708 1602.1L1708.2 1597.4L1708.3 1595.1C1708.3 1594.3 1708.4 1593.7 1708.3 1592.3C1708.3 1587.3 1707.3 1582.4 1705.4 1577.9Z" fill="black"/>
<path d="M1708.2 1869.6L1708 1864.9L1707.6 1855.6C1706.9 1843.2 1706.2 1830.7 1704.9 1818.3C1704.4 1813.4 1700.6 1809.4 1695.5 1808.9C1689.7 1808.3 1684.6 1812.6 1684.1 1818.3C1682.9 1830.7 1682.1 1843.2 1681.4 1855.6L1680.5 1873.8C1680.2 1876.6 1678.9 1879 1677 1880.9C1675.1 1882.8 1672.6 1884.1 1669.9 1884.4L1651.7 1885.3C1639.3 1886 1626.8 1886.8 1614.3 1888C1609.4 1888.5 1605.4 1892.3 1604.9 1897.4C1604.3 1903.1 1608.5 1908.3 1614.3 1908.8C1626.7 1910 1639.2 1910.8 1651.7 1911.5L1661 1911.9L1665.7 1912.1L1668.1 1912.2H1669.3C1669.6 1912.2 1670.4 1912.2 1671 1912.2C1675.8 1912.1 1680.7 1911.1 1685.2 1909.3C1689.7 1907.4 1693.8 1904.6 1697.3 1901.1C1700.7 1897.6 1703.5 1893.5 1705.4 1889C1707.3 1884.5 1708.2 1879.6 1708.3 1874.8C1708.4 1873.4 1708.3 1872.8 1708.3 1872L1708.2 1869.6Z" fill="black"/>
<path d="M1496 803.6C1384.3 803.6 1325.6 883.9 1323.1 887.4C1320.4 891.2 1320.4 896.4 1323.1 900.3C1325.6 903.7 1384.2 984.1 1496 984.1C1607.8 984.1 1666.4 903.8 1668.9 900.3C1671.6 896.4 1671.6 891.3 1668.9 887.4C1666.4 883.9 1607.7 803.6 1496 803.6ZM1417.3 927.7C1420.7 935.5 1412.2 943.1 1404.7 939.2C1384.1 928.4 1368.3 915.6 1357.6 905.4C1351 899 1351 888.4 1357.6 882.1C1368.3 871.9 1384.1 859 1404.8 848.2C1412.3 844.2 1420.8 851.9 1417.4 859.7C1412.8 870.1 1410.3 881.7 1410.3 893.8C1410.3 905.8 1412.8 917.3 1417.3 927.7ZM1496 957.3C1461 957.3 1432.5 928.8 1432.5 893.8C1432.5 858.8 1461 830.3 1496 830.3C1531.1 830.3 1559.5 858.8 1559.5 893.8C1559.5 928.8 1531 957.3 1496 957.3ZM1634.3 905.5C1623.6 915.7 1607.8 928.5 1587.2 939.4C1579.7 943.4 1571.2 935.7 1574.6 927.9C1579.1 917.4 1581.7 905.9 1581.7 893.8C1581.7 881.7 1579.2 870.3 1574.7 859.8C1571.3 852 1579.7 844.4 1587.3 848.3C1607.9 859.1 1623.7 871.9 1634.3 882.1C1640.9 888.4 1640.9 899.1 1634.3 905.5Z" fill="black"/>
<path d="M1635.9 2338.9H1651.4C1657.5 2338.9 1662.5 2333.9 1662.5 2327.8V2272.2C1662.5 2266.1 1657.5 2261.1 1651.4 2261.1H1635.9C1629.8 2261.1 1624.8 2266.1 1624.8 2272.2V2327.8C1624.8 2333.9 1629.8 2338.9 1635.9 2338.9Z" fill="black"/>
<path d="M1614.6 1690.8C1620.3 1693.5 1627.2 1691.1 1629.9 1685.3C1631.5 1681.8 1632.3 1678.3 1632.8 1674.8C1633.3 1671.3 1633.4 1667.8 1633.3 1664.3C1633.2 1660.8 1632.9 1657.3 1632.4 1653.8C1631.8 1650.3 1631.2 1646.8 1629.9 1643.3C1628.8 1640.4 1626.5 1637.9 1623.4 1636.8C1617.7 1634.7 1611.3 1637.6 1609.2 1643.3C1607.9 1646.8 1607.2 1650.3 1606.7 1653.8C1606.2 1657.3 1605.9 1660.8 1605.8 1664.3C1605.7 1667.8 1605.8 1671.3 1606.3 1674.8C1606.9 1678.3 1607.6 1681.8 1609.2 1685.3C1610.2 1687.6 1612.1 1689.6 1614.6 1690.8Z" fill="black"/>
<path d="M1610.5 1787.9C1606.6 1783.6 1600 1783.2 1595.7 1787.1L1595.4 1787.3C1584.9 1796.8 1573.9 1804.8 1561.7 1810.5C1549.5 1816.1 1536.2 1819 1522.9 1819C1516.2 1819.1 1509.6 1818.3 1503 1816.9C1496.5 1815.5 1490.1 1813.4 1484 1810.6C1477.9 1807.8 1472.1 1804.4 1466.5 1800.5C1460.9 1796.6 1455.6 1792.1 1450.4 1787.3L1450.1 1787C1446.8 1784 1441.9 1783.3 1437.8 1785.6C1432.8 1788.5 1431 1794.9 1433.9 1799.9C1442.5 1815 1456 1827.3 1471.7 1835.5C1479.5 1839.6 1487.9 1842.7 1496.5 1844.9C1505.1 1847 1514 1848.1 1522.9 1848.1C1531.8 1848.1 1540.7 1847 1549.3 1844.9C1557.9 1842.8 1566.3 1839.5 1574.1 1835.5C1589.8 1827.4 1603.5 1815.1 1611.9 1799.8C1614 1796.2 1613.6 1791.3 1610.5 1787.9Z" fill="black"/>
<path d="M1581.8 2338.9H1597.3C1603.4 2338.9 1608.4 2333.9 1608.4 2327.8V2272.2C1608.4 2266.1 1603.4 2261.1 1597.3 2261.1H1581.8C1575.7 2261.1 1570.7 2266.1 1570.7 2272.2V2327.8C1570.7 2333.9 1575.6 2338.9 1581.8 2338.9Z" fill="black"/>
<path d="M1569.3 776.1C1573.4 778.4 1578.6 776.9 1580.9 772.7C1583.5 768 1585.4 763.2 1587.2 758.4C1588.9 753.5 1590.5 748.6 1591.8 743.6C1593.1 738.6 1594.3 733.6 1595.3 728.5C1596.3 723.4 1597.1 718.2 1597.4 713C1597.6 709.7 1595.9 706.5 1592.8 704.9C1588.6 702.7 1583.5 704.4 1581.4 708.6C1579 713.3 1577 718.1 1575.3 723C1573.5 727.9 1571.9 732.8 1570.5 737.8C1569 742.8 1567.8 747.8 1566.8 752.9C1565.8 758 1565 763.1 1564.9 768.5C1564.8 771.4 1566.4 774.5 1569.3 776.1Z" fill="black"/>
<path d="M1499.9 1759.7C1506.4 1760.3 1513.3 1759.3 1519.6 1756.8C1525.9 1754.4 1531.8 1750.5 1536.6 1745.6C1541.5 1740.7 1545.2 1734.6 1547.7 1728C1548.9 1724.7 1549.7 1721.2 1550.2 1717.7C1550.4 1716 1550.5 1714.2 1550.6 1712.4L1550.7 1708.5C1550.7 1698.3 1550.3 1688 1549.7 1677.8C1549.1 1667.6 1548.2 1657.4 1546.8 1647.1C1546.2 1642.6 1542.6 1638.8 1537.8 1638.1C1532 1637.3 1526.8 1641.3 1526 1647.1C1524.6 1657.3 1523.7 1667.5 1523.1 1677.8C1522.5 1688 1522.1 1698.3 1522.1 1708.5V1712.2L1522 1714.6C1521.9 1716.2 1521.6 1717.8 1521.3 1719.3C1520.5 1722.4 1519.1 1725.3 1517.1 1728C1513.1 1733.4 1507 1737.4 1499.6 1738.8L1498.9 1738.9C1494.4 1739.8 1490.8 1743.5 1490.4 1748.3C1489.9 1754.2 1494.1 1759.2 1499.9 1759.7Z" fill="black"/>
<path d="M1500.3 2441H1343.2C1325.3 2441 1310.7 2455.6 1310.7 2473.5C1310.7 2491.4 1325.3 2506.1 1343.2 2506.1H1500.3C1518.2 2506.1 1532.8 2491.5 1532.8 2473.5C1532.8 2455.6 1518.2 2441 1500.3 2441ZM1500.3 2483.9H1343.2C1337.5 2483.9 1332.9 2479.2 1332.9 2473.5C1332.9 2467.8 1337.5 2463.2 1343.2 2463.2H1500.3C1506 2463.2 1510.6 2467.8 1510.6 2473.5C1510.6 2479.3 1506 2483.9 1500.3 2483.9Z" fill="black"/>
<path d="M1496 857.4C1476 857.4 1459.7 873.7 1459.7 893.7C1459.7 913.7 1476 930 1496 930C1516.1 930 1532.3 913.7 1532.3 893.7C1532.3 873.7 1516 857.4 1496 857.4ZM1496 907.9C1488.2 907.9 1481.9 901.6 1481.9 893.7C1481.9 885.9 1488.2 879.6 1496 879.6C1503.8 879.6 1510.1 886 1510.1 893.7C1510.1 901.6 1503.8 907.9 1496 907.9Z" fill="black"/>
<path d="M1321.8 2280.5C1337.4 2281.6 1353.1 2282.3 1368.8 2282.7C1384.5 2283.1 1400.1 2283.3 1415.8 2283.3C1447.1 2283.2 1478.5 2282.7 1509.7 2280.5C1513.8 2280.2 1517.2 2277 1517.5 2272.8C1517.8 2268.2 1514.3 2264.2 1509.7 2263.9C1478.4 2261.7 1447.1 2261.2 1415.8 2261.1C1400.1 2261.1 1384.5 2261.3 1368.8 2261.7C1353.1 2262.1 1337.5 2262.8 1321.8 2263.9C1317.7 2264.2 1314.3 2267.4 1314 2271.6C1313.7 2276.2 1317.2 2280.2 1321.8 2280.5Z" fill="black"/>
<path d="M1506.4 2319.5C1475.6 2317.3 1444.9 2316.8 1414.1 2316.7C1398.7 2316.7 1383.3 2316.9 1367.9 2317.3C1352.5 2317.7 1337.1 2318.4 1321.7 2319.5C1317.6 2319.8 1314.2 2323 1314 2327.2C1313.7 2331.8 1317.1 2335.8 1321.7 2336.1C1337.1 2337.2 1352.5 2337.9 1367.9 2338.3C1383.3 2338.7 1398.7 2338.9 1414.1 2338.9C1444.9 2338.8 1475.6 2338.3 1506.4 2336.1C1510.5 2335.8 1513.8 2332.6 1514.1 2328.4C1514.5 2323.8 1511 2319.8 1506.4 2319.5Z" fill="black"/>
<path d="M1488.4 763.3C1489.3 765.9 1491.3 768 1494.1 769C1498.7 770.5 1503.6 767.9 1505.1 763.3C1506.5 758.9 1507.1 754.6 1507.5 750.3C1507.9 745.9 1507.9 741.6 1507.8 737.3C1507.7 732.9 1507.5 728.6 1507.1 724.3C1506.7 719.9 1506.1 715.6 1505.1 711.3C1504.4 708.2 1502 705.6 1498.7 704.9C1494.1 703.8 1489.5 706.7 1488.5 711.3C1487.5 715.6 1487 719.9 1486.5 724.3C1486.1 728.6 1485.8 732.9 1485.8 737.3C1485.7 741.6 1485.7 745.9 1486.1 750.3C1486.5 754.6 1487 758.9 1488.4 763.3Z" fill="black"/>
<path d="M1447.6 2086.8C1455.28 2086.8 1461.5 2080.58 1461.5 2072.9C1461.5 2065.22 1455.28 2059 1447.6 2059C1439.92 2059 1433.7 2065.22 1433.7 2072.9C1433.7 2080.58 1439.92 2086.8 1447.6 2086.8Z" fill="black"/>
<path d="M1447.6 2138.9C1455.28 2138.9 1461.5 2132.68 1461.5 2125C1461.5 2117.32 1455.28 2111.1 1447.6 2111.1C1439.92 2111.1 1433.7 2117.32 1433.7 2125C1433.7 2132.68 1439.92 2138.9 1447.6 2138.9Z" fill="black"/>
<path d="M1430.3 1885.3C1417.9 1884.1 1405.4 1883.3 1393 1882.6L1374.8 1881.7C1372 1881.4 1369.6 1880.1 1367.7 1878.2C1365.8 1876.3 1364.5 1873.8 1364.2 1871.1L1363.3 1852.9C1362.6 1840.5 1361.8 1828 1360.6 1815.5C1360.1 1810.6 1356.3 1806.6 1351.2 1806.1C1345.5 1805.5 1340.3 1809.7 1339.8 1815.5C1338.6 1827.9 1337.8 1840.4 1337.1 1852.9L1336.7 1862.2L1336.5 1866.9L1336.4 1869.2V1870.4C1336.4 1870.7 1336.4 1871.5 1336.4 1872.1C1336.5 1876.9 1337.5 1881.8 1339.3 1886.3C1341.2 1890.8 1344 1894.9 1347.5 1898.4C1351 1901.8 1355.1 1904.6 1359.6 1906.5C1364.1 1908.4 1369 1909.3 1373.8 1909.4C1375.2 1909.5 1375.8 1909.4 1376.6 1909.4L1378.9 1909.3L1383.6 1909.1L1392.9 1908.7C1405.3 1908 1417.8 1907.3 1430.2 1906C1435.1 1905.5 1439.1 1901.7 1439.6 1896.6C1440.2 1890.9 1436 1885.8 1430.3 1885.3Z" fill="black"/>
<path d="M1435.6 1643.4C1434.5 1640.4 1432.1 1637.9 1428.9 1636.7C1423.2 1634.7 1416.9 1637.7 1414.8 1643.4C1413.6 1646.9 1412.9 1650.4 1412.3 1653.9C1411.8 1657.4 1411.5 1660.9 1411.4 1664.4C1411.3 1667.9 1411.3 1671.4 1411.8 1674.9C1412.3 1678.4 1413.1 1681.9 1414.8 1685.4C1415.9 1687.6 1417.7 1689.4 1420 1690.6C1425.7 1693.4 1432.7 1691.1 1435.6 1685.4C1437.3 1681.9 1438.1 1678.4 1438.6 1674.9C1439.1 1671.4 1439.1 1667.9 1439 1664.4C1438.9 1660.9 1438.6 1657.4 1438.1 1653.9C1437.4 1650.4 1436.8 1646.9 1435.6 1643.4Z" fill="black"/>
<path d="M1398.1 728.5C1399 733.6 1400.3 738.6 1401.6 743.6C1402.9 748.6 1404.5 753.5 1406.2 758.4C1408 763.3 1410 768.1 1412.5 772.7C1414 775.4 1416.9 777.2 1420.3 777.1C1425 776.9 1428.7 773 1428.6 768.3C1428.4 763 1427.6 757.8 1426.6 752.7C1425.6 747.6 1424.4 742.6 1422.9 737.6C1421.4 732.6 1419.9 727.7 1418.1 722.8C1416.3 717.9 1414.4 713.1 1412 708.4C1410.5 705.5 1407.4 703.6 1403.9 703.8C1399.2 704.1 1395.7 708.1 1396 712.8C1396.3 718.2 1397.2 723.4 1398.1 728.5Z" fill="black"/>
<path d="M1389.7 2059C1382 2059 1375.8 2065.2 1375.8 2072.9C1375.8 2080.6 1382 2086.8 1389.7 2086.8C1397.4 2086.8 1403.6 2080.6 1403.6 2072.9C1403.5 2065.2 1397.3 2059 1389.7 2059Z" fill="black"/>
<path d="M1389.7 2111.2C1382 2111.2 1375.8 2117.4 1375.8 2125.1C1375.8 2132.8 1382 2139 1389.7 2139C1397.4 2139 1403.6 2132.8 1403.6 2125.1C1403.5 2117.4 1397.3 2111.2 1389.7 2111.2Z" fill="black"/>
<path d="M1336.3 1597.5L1336.4 1599.8L1336.6 1604.5L1337 1613.8C1337.7 1626.3 1338.5 1638.7 1339.7 1651.2C1340.2 1656.1 1344 1660.1 1349.1 1660.6C1354.8 1661.2 1360 1657 1360.5 1651.2C1361.7 1638.8 1362.5 1626.3 1363.2 1613.8L1364.1 1595.6C1364.4 1592.8 1365.7 1590.4 1367.6 1588.5C1369.5 1586.6 1372 1585.4 1374.7 1585.1L1392.9 1584.3C1405.3 1583.6 1417.8 1582.8 1430.2 1581.5C1435 1581 1439 1577.2 1439.5 1572.2C1440.1 1566.5 1435.9 1561.3 1430.2 1560.7C1417.8 1559.4 1405.3 1558.6 1392.9 1557.9L1383.6 1557.5L1378.9 1557.3L1376.6 1557.2C1375.8 1557.2 1375.2 1557.1 1373.8 1557.2C1364.1 1557.2 1354.3 1561.3 1347.4 1568.3C1344 1571.8 1341.2 1575.9 1339.2 1580.4C1337.3 1584.9 1336.3 1589.8 1336.3 1594.6C1336.3 1595.2 1336.3 1596 1336.3 1596.3V1597.5Z" fill="black"/>
<path d="M1303.5 740.7C1307.8 748.5 1312.3 756.2 1316.9 763.8C1321.5 771.4 1326.3 778.9 1331.3 786.3C1336.3 793.7 1341.5 800.9 1347.2 807.9C1349.5 810.8 1353.6 811.8 1357.1 810.3C1361.3 808.4 1363.3 803.5 1361.4 799.2C1357.8 791 1353.6 783.1 1349.3 775.3C1345 767.5 1340.5 759.9 1335.8 752.3C1331.1 744.8 1326.3 737.3 1321.3 729.9C1316.3 722.6 1311.2 715.3 1305.6 708.3C1303.3 705.4 1299.1 704.3 1295.6 705.9C1291.4 707.8 1289.6 712.8 1291.5 717C1295 725 1299.2 732.9 1303.5 740.7Z" fill="black"/>
<path d="M1272.8 1324.2H1311.4C1348.1 1324.2 1377.9 1294.3 1377.9 1257.7C1377.9 1221 1348.1 1191.2 1311.4 1191.2H1272.8C1236.1 1191.2 1206.3 1221.1 1206.3 1257.7C1206.3 1294.3 1236.1 1324.2 1272.8 1324.2ZM1354.6 1247.6C1355.4 1250.8 1355.7 1254.2 1355.7 1257.6C1355.7 1282 1335.8 1302 1311.3 1302H1311.1C1303 1301.9 1298.6 1292.3 1303.7 1286L1337.2 1243.7C1342.4 1237.3 1352.8 1239.6 1354.6 1247.6ZM1267.7 1250.1C1270.7 1232.1 1284.9 1217.7 1302.8 1214.2C1306.3 1213.5 1309.6 1213.3 1312.9 1213.4C1321 1213.7 1325.4 1223 1320.3 1229.4L1285.8 1272.9C1280.8 1279.3 1270.6 1277.1 1268.5 1269.3C1267 1263.2 1266.6 1256.8 1267.7 1250.1Z" fill="black"/>
<path d="M1324.2 2055.1H1258.7C1252.6 2055.1 1247.6 2060.1 1247.6 2066.2V2131.7C1247.6 2137.8 1252.6 2142.8 1258.7 2142.8H1324.2C1330.3 2142.8 1335.3 2137.8 1335.3 2131.7V2066.2C1335.3 2060.1 1330.3 2055.1 1324.2 2055.1Z" fill="black"/>
<path d="M1171.5 2375.9C1164.6 2371.1 1160.1 2363.6 1159.8 2355.2L1157.7 2284.5C1157.6 2279.9 1153.7 2276.2 1149 2276.4C1144.6 2276.6 1141.2 2280.5 1141.1 2284.9L1139.1 2355.1C1138.8 2363.5 1134.3 2371 1127.4 2375.8C1117.2 2382.8 1110.6 2394.5 1110.6 2407.8C1110.6 2421.1 1117.3 2432.9 1127.6 2439.9C1134.6 2444.7 1139.3 2452.2 1139.8 2460.7L1141.2 2483.5C1141.5 2487.9 1145.2 2491.5 1149.9 2491.3C1154.2 2491.1 1157.7 2487.4 1157.9 2483.1L1159.3 2460.8C1159.8 2452.3 1164.5 2444.8 1171.5 2440C1181.7 2433 1188.5 2421.2 1188.5 2407.9C1188.3 2394.7 1181.7 2383 1171.5 2375.9ZM1149.4 2424.7C1140.2 2424.7 1132.7 2417.2 1132.7 2407.9C1132.7 2399.4 1139.1 2392.3 1147.4 2391.3C1148.2 2391.4 1148.9 2391.5 1149.8 2391.5C1150.4 2391.5 1150.9 2391.4 1151.4 2391.3C1159.7 2392.3 1166.2 2399.3 1166.2 2407.9C1166.2 2417.2 1158.6 2424.7 1149.4 2424.7Z" fill="black"/>
<path d="M752 1338H1018.7C1046.1 1338 1068.4 1314.4 1068.4 1285.3V966.9C1068.4 937.9 1046.1 914.2 1018.7 914.2H752C723 914.2 699.3 937.8 699.3 966.9V1285.4C699.4 1314.4 723 1338 752 1338ZM1016.3 936.4C1016.3 936.4 1016.3 936.4 1016.3 936.5C1016.3 936.4 1016.3 936.4 1016.2 936.4H1016.3ZM721.5 966.9C721.5 950.1 735.2 936.4 752 936.4H973.3C990.1 936.4 1003.8 950.1 1003.8 966.9V1285.4C1003.8 1302.2 990.1 1315.9 973.3 1315.9H752C735.2 1315.9 721.5 1302.2 721.5 1285.4V966.9Z" fill="black"/>
<path d="M1045.3 2328.2C1038.3 2323.4 1033.6 2315.9 1033.1 2307.4L1031.7 2284.6C1031.4 2280.2 1027.7 2276.6 1023 2276.8C1018.7 2277 1015.3 2280.7 1015 2285L1013.6 2307.3C1013.1 2315.8 1008.4 2323.3 1001.3 2328.1C991.1 2335.1 984.4 2346.8 984.4 2360.2C984.4 2373.5 991.1 2385.2 1001.3 2392.2C1008.2 2397 1012.7 2404.5 1013 2412.9L1015 2483.6C1015.1 2488.2 1019 2491.9 1023.7 2491.7C1028.1 2491.5 1031.5 2487.6 1031.7 2483.2L1033.7 2413C1034 2404.6 1038.5 2397.1 1045.4 2392.3C1055.6 2385.3 1062.3 2373.6 1062.3 2360.3C1062.2 2346.9 1055.5 2335.2 1045.3 2328.2ZM1025.4 2376.8C1024.6 2376.7 1023.9 2376.6 1023 2376.6C1022.5 2376.6 1021.9 2376.7 1021.4 2376.8C1013.1 2375.8 1006.6 2368.8 1006.6 2360.2C1006.6 2351 1014.1 2343.5 1023.3 2343.5C1032.5 2343.5 1040 2351 1040 2360.2C1040.1 2368.8 1033.6 2375.8 1025.4 2376.8Z" fill="black"/>
<path d="M995.2 1644.3H627.6C598.6 1644.3 574.9 1667.9 574.9 1697V2070C574.9 2099.1 598.5 2122.7 627.6 2122.7H995.1C1024.1 2122.7 1047.8 2096.8 1047.8 2064.9V1702.2C1047.8 1670.3 1024.2 1644.3 995.2 1644.3ZM980.8 2070C980.8 2086.7 967.3 2100.3 950.6 2100.5H627.6C610.8 2100.5 597.1 2086.8 597.1 2070V1697C597.1 1680.2 610.8 1666.5 627.6 1666.5H950.3C967.1 1666.5 980.8 1680.2 980.8 1697V2070Z" fill="black"/>
<path d="M1009.4 1386.6H965V1386.9C937 1389.7 915.1 1413.4 915.1 1442.1C915.1 1470.8 937 1494.5 965 1497.3V1497.6H1009.4C1040 1497.6 1064.8 1472.7 1064.8 1442.2C1064.8 1411.4 1040 1386.6 1009.4 1386.6ZM1009.4 1475.3C991 1475.3 976.1 1460.4 976.1 1442C976.1 1423.7 991 1408.7 1009.4 1408.7C1027.7 1408.7 1042.7 1423.6 1042.7 1442C1042.7 1460.3 1027.7 1475.3 1009.4 1475.3Z" fill="black"/>
<path d="M762.4 1090.4C766.9 1091.5 771.4 1088.7 772.4 1084.2L772.5 1084C775.3 1072 778.7 1060.5 783.5 1049.9C786 1044.7 788.8 1039.6 792 1034.9C795.3 1030.2 798.9 1025.9 803 1022C819.4 1006.5 842.8 998.9 865.7 1000.7C877.1 1001.4 888.5 1004.5 898.6 1009.5C903.7 1012 908.5 1014.9 912.8 1018.5C917.2 1022 921.3 1025.9 924.7 1030.3C928.2 1034.7 931.3 1039.4 933.8 1044.5C935.2 1047 936.1 1049.7 937.3 1052.3L938.7 1056.3C939.2 1057.6 939.6 1059 939.9 1060.4C942.9 1071.5 944.1 1083.2 943.4 1095.1C942.4 1119.5 936.7 1143.5 927.7 1166.7C925.5 1172.5 923 1178.3 920.4 1184L916.5 1192.6L912.4 1200.8C906.7 1211.5 900 1221.6 892.3 1230.4C884.5 1239.1 875.4 1246.6 865.6 1251.4C860.7 1253.8 855.6 1255.4 850.5 1256.2C845.3 1256.9 840 1256.9 834.9 1256.1C824.6 1254.2 815.1 1249.1 807.8 1241.4C804.2 1237.6 801 1233.3 798.3 1228.5C795.7 1223.7 793.6 1218.5 791.7 1213L791.5 1212.4C790.3 1209 787.1 1206.7 783.3 1206.8C778.7 1206.9 775 1210.8 775.2 1215.4C775.4 1222.6 776.9 1230 779.5 1237C782.3 1244 786.3 1250.6 791.3 1256.3C792.6 1257.7 793.9 1259.2 795.3 1260.5L799.6 1264.3C802.7 1266.6 805.8 1268.8 809.2 1270.7C815.9 1274.4 823.3 1277 830.9 1278.5C838.5 1279.8 846.2 1279.9 853.9 1278.8C861.6 1277.7 868.9 1275.3 875.6 1272.1C889 1265.6 900.3 1256.3 909.7 1245.9C919.1 1235.4 926.9 1223.8 933.3 1211.7L937.9 1202.5L942 1193.5C944.7 1187.5 947.4 1181.3 949.8 1175.1C959.6 1150.2 966.1 1123.3 967.3 1096C967.9 1082.1 966.6 1067.8 962.7 1053.9C962.3 1052.2 961.7 1050.4 961.1 1048.7L959.3 1043.6C957.8 1040.3 956.6 1036.9 954.8 1033.7C951.6 1027.2 947.5 1021.1 942.9 1015.4C938.3 1009.7 933 1004.6 927.3 1000.1C921.6 995.5 915.3 991.7 908.8 988.5C895.7 982.2 881.6 978.6 867.2 977.7C852.9 976.7 838.3 978.6 824.6 983.2C810.8 987.8 798.1 995.6 787.6 1005.6C782.4 1010.7 777.7 1016.3 773.6 1022.2C769.6 1028.2 766.3 1034.6 763.5 1041.2C758.3 1054.5 755.8 1068.4 755.9 1082.1C756 1086.1 758.6 1089.5 762.4 1090.4Z" fill="black"/>
<path d="M919.2 2375.9C912.3 2371.1 907.8 2363.6 907.5 2355.2L905.5 2284.5C905.4 2279.9 901.5 2276.2 896.8 2276.4C892.4 2276.6 889 2280.5 888.8 2284.9L886.8 2355.1C886.5 2363.5 882 2371 875.1 2375.8C864.9 2382.8 858.2 2394.5 858.2 2407.8C858.2 2421.1 864.9 2432.9 875.2 2439.9C882.2 2444.7 886.9 2452.2 887.4 2460.7L888.8 2483.5C889.1 2487.9 892.8 2491.5 897.5 2491.3C901.8 2491.1 905.2 2487.4 905.5 2483.1L906.9 2460.8C907.4 2452.3 912.1 2444.8 919.2 2440C929.4 2433 936.1 2421.2 936.1 2407.9C936.1 2394.7 929.4 2383 919.2 2375.9ZM897.2 2424.7C888 2424.7 880.5 2417.2 880.5 2407.9C880.5 2399.4 886.9 2392.3 895.2 2391.3C896 2391.4 896.7 2391.5 897.5 2391.5C898.1 2391.5 898.6 2391.4 899.1 2391.3C907.4 2392.3 913.9 2399.3 913.9 2407.9C913.9 2417.2 906.4 2424.7 897.2 2424.7Z" fill="black"/>
<path d="M915.8 1877.1C915.3 1873.6 912.5 1870.6 908.8 1870.1C904.2 1869.4 899.9 1872.5 899.2 1877.1C898.1 1884.3 897.5 1891.5 897.1 1898.7C896.7 1905.9 896.5 1913.1 896.4 1920.3C896.4 1927.5 896.5 1934.7 896.9 1941.9C897.3 1949.1 897.9 1956.3 899.1 1963.5C899.7 1966.9 902.4 1969.8 906 1970.4C910.6 1971.2 915 1968.1 915.7 1963.5C916.9 1956.3 917.5 1949.1 917.9 1941.9C918.3 1934.7 918.5 1927.5 918.4 1920.3C918.3 1913.1 918.2 1905.9 917.7 1898.7C917.5 1891.5 916.9 1884.3 915.8 1877.1Z" fill="black"/>
<path d="M871 1050.1C871.5 1050.2 872 1050.3 872.5 1050.4C877.6 1051.6 882.5 1053.9 887.1 1056.9C891.7 1060 896 1063.9 900 1068.3L900.2 1068.5C903.1 1071.7 908.3 1072.2 911.8 1069.1C914.9 1066.4 915.3 1061.6 913.1 1058.1C909.3 1052 904.6 1046.3 898.8 1041.4C893 1036.4 886 1032.3 878.4 1029.8C863.1 1024.6 845.4 1026.4 831.2 1034.6C824.1 1038.6 817.8 1044.2 813 1050.8C808.3 1057.5 804.7 1065 803 1072.8C799.4 1088.6 802.6 1104.7 809.4 1117.5C811.5 1121.5 816.8 1123.4 821.3 1120.7C824.3 1118.9 825.7 1115.3 825 1111.9L824.9 1111.6C823.3 1103.8 822.5 1096.3 823.1 1089.2V1089.1C823.8 1080.5 832.7 1075.1 840.8 1077.9C842.5 1078.5 844 1079.1 845.1 1079.6C850.1 1082.2 854.4 1085.8 857.9 1090C864.9 1098.6 867.9 1110.4 866.8 1121.7C866.2 1127.4 864.6 1132.9 861.9 1137.9C859.2 1142.9 855.4 1147.1 851 1150.7C846.6 1154.2 841.4 1157 835.6 1159C829.9 1161 823.6 1162.2 817.1 1163.2L816.7 1163.3C812.5 1163.9 809.2 1167.7 809.5 1172.3C809.8 1176.4 813.3 1179.5 817.4 1179.9C825.1 1180.6 833.1 1180.3 841 1178.6C849.1 1176.9 857.1 1173.4 864.1 1168.3C871.1 1163.3 877.1 1156.5 881.4 1149C885.7 1141.4 888.4 1133 889.5 1124.5C891.7 1107.4 887.1 1089.3 875.9 1075.5C872.6 1071.4 868.7 1067.8 864.5 1064.7C864.5 1064.7 864.4 1064.7 864.4 1064.6C857.4 1059.6 862.3 1048.4 871 1050.1Z" fill="black"/>
<path d="M904.9 1848.3C909.5 1847.6 912.6 1843.4 911.9 1838.8C911.5 1836.5 911.2 1834.1 910.7 1831.8L910 1828.3L909 1824.9C908.3 1822.6 907.6 1820.4 906.8 1818.1C905.9 1815.9 904.9 1813.7 904 1811.5L902.5 1808.2L900.8 1805.1C899.6 1803 898.5 1800.9 897.3 1798.9C894.5 1795 892.1 1790.9 888.9 1787.3C883 1779.7 876 1773.1 868.6 1767C864.7 1764.1 860.9 1761.2 856.8 1758.8C852.8 1756.1 848.5 1754 844.2 1751.8C826.8 1743.6 807.4 1739.6 788.3 1739.9C769.2 1740.1 749.8 1745 734.1 1755.8C731.2 1757.8 729.8 1761.4 730.8 1765C732 1769.5 736.7 1772.1 741.2 1770.8L741.4 1770.7C757.2 1766.3 772.7 1763.2 788.5 1763.3C796.3 1763.6 804.2 1764.2 811.8 1766.1C819.5 1767.6 826.9 1770.4 834.1 1773.6L839.4 1776.2C841.2 1777 842.8 1778.2 844.5 1779.1C848 1781 851.1 1783.4 854.3 1785.6C860.5 1790.5 866.5 1795.6 871.5 1801.7C874.2 1804.6 876.4 1807.9 878.8 1811L882 1816L883.6 1818.5L885 1821.1C886 1822.8 886.9 1824.6 888 1826.3C888.9 1828.1 889.7 1829.9 890.6 1831.7L892 1834.4L893.2 1837.2C894 1839.1 894.8 1840.9 895.8 1842.8L896.2 1843.6C897.7 1846.9 901.2 1848.9 904.9 1848.3Z" fill="black"/>
<path d="M873.2 1870.2C873.2 1869.1 873.1 1867.7 873 1866.5L872.8 1862.7L872.3 1858.9C870.9 1848.8 867.6 1839.1 862.7 1830.2C857.8 1821.4 851.4 1813.4 843.5 1807.1C835.7 1800.9 826.6 1796.2 817.1 1793.9C813.6 1793.1 809.8 1794.6 807.9 1797.8C805.6 1801.8 807 1806.9 810.9 1809.2L811.2 1809.4C818 1813.3 824.1 1817.8 829.4 1823C834.8 1828.2 839.2 1834.2 842.6 1840.7C846 1847.2 848 1854.4 848.8 1861.7L849.1 1864.4L849.2 1867.2C849.2 1868.1 849.3 1868.9 849.3 1870V1873.3L849.2 1886.4V1912.6L849.5 1938.8C849.6 1956.3 850 1973.7 852.9 1991.2C853.5 1994.6 856.2 1997.5 859.8 1998.1C864.4 1998.9 868.7 1995.8 869.5 1991.2C872.5 1973.7 872.8 1956.3 872.9 1938.8L873.2 1912.6V1886.4L873.1 1873.3L873.2 1870.2Z" fill="black"/>
<path d="M858.3 2177C865.977 2177 872.2 2170.78 872.2 2163.1C872.2 2155.42 865.977 2149.2 858.3 2149.2C850.623 2149.2 844.4 2155.42 844.4 2163.1C844.4 2170.78 850.623 2177 858.3 2177Z" fill="black"/>
<path d="M860.8 1404.4C860.2 1401.1 857.6 1398.3 854.1 1397.7C849.5 1396.8 845.1 1399.8 844.2 1404.4C843.1 1410.3 842.5 1416.2 842.1 1422C841.7 1427.9 841.5 1433.8 841.5 1439.6C841.5 1445.5 841.6 1451.4 842.1 1457.2C842.5 1463.1 843.1 1469 844.3 1474.8C845 1478 847.5 1480.7 851 1481.4C855.6 1482.3 860.1 1479.3 861 1474.8C862.2 1468.9 862.8 1463 863.2 1457.2C863.6 1451.3 863.8 1445.4 863.8 1439.6C863.7 1433.7 863.6 1427.8 863.2 1422C862.5 1416.2 861.9 1410.3 860.8 1404.4Z" fill="black"/>
<path d="M555.4 541C571.1 530.4 587.1 521 603.9 514.4L607.1 513.1L610.3 512.1L616.7 510.1C621 509.2 625.3 507.9 629.7 507.5C634 506.7 638.4 506.6 642.7 506.4L649.1 506.7C651.3 506.8 653.3 507.2 655.5 507.5C672.3 510 687.8 518.4 698.1 531.5C701.1 535.3 703.7 539.6 705.7 544C706.8 546.4 705.7 549.3 703.2 550.3C692.6 554.6 665.9 566.3 648.9 580.5C645 583.8 641.1 587.2 637.2 590.6C633.5 594.1 629.9 597.6 626.4 601.2C619.3 608.5 612.6 616.1 606.3 624.3C600.1 632.5 594.2 641.2 589.4 650.8C584.6 660.3 580.5 670.6 579.1 682.5C578.5 688.4 578.5 694.7 580.2 701.3C581.8 707.8 585.4 714.8 591.3 719.7C594.2 722.2 597.5 724.1 600.9 725.5C604.3 726.8 607.8 727.6 611.2 728C617.9 728.6 624.2 727.8 629.9 726.2C641.4 723 651.1 717.5 659.8 711.3C668.5 705 676.2 697.8 683.3 690.3C690.3 682.7 696.8 674.7 702.7 666.4C705.6 662.2 708.5 658 711.2 653.8L715.2 647.1C716.5 644.9 717.9 642.6 719 640.3L722.5 633.3C723.7 631 724.6 628.5 725.6 626.1C727.8 621.3 729.2 616.1 730.9 611.1C733.7 600.8 735.5 590.2 735.8 579.3C735.8 576.8 735.8 574.2 735.6 571.6C735.4 568.9 737.6 566.6 740.3 566.6C746.5 566.6 756.8 566.7 762.6 567.7C771.1 569.4 779.2 572.3 786.8 576.3C794.3 580.4 801.1 585.7 807 591.9C813 598 817.6 605.3 821.4 613L824 618.9C824.8 620.9 825.4 623 826.1 625.1C826.4 626.1 826.8 627.1 827.1 628.2L827.8 631.4C828.2 633.5 828.8 635.6 829.2 637.8C832 655.2 830.4 673.3 825.9 690.9C821.3 708.5 814.1 725.7 806 742.8L805.9 742.9C804.2 746.4 805.2 750.7 808.5 753.2C812.2 756 817.4 755.2 820.2 751.5C832.3 735.3 841.7 716.8 847.5 696.8C853.1 676.8 854.9 655.3 851.7 634.1C851.3 631.5 850.6 628.8 850.1 626.2L849.2 622.3C848.8 621 848.4 619.7 848 618.4C847.1 615.9 846.4 613.2 845.4 610.7L842.1 603.2C837.3 593.5 831.4 584.1 823.8 576.2C816.2 568.3 807.5 561.4 797.9 556.1C788.2 551 777.9 547.1 767.1 545.1C754.8 542.8 740.5 543.3 733.9 543.7C731.9 543.8 730 542.6 729.2 540.7C726 532.4 721.6 524.4 716 517.4C709 508.6 700.2 501.3 690.4 495.9C680.6 490.5 669.9 487 659 485.4C656.3 485.1 653.6 484.6 650.9 484.5L642.7 484.2C637.3 484.5 631.9 484.6 626.6 485.6C621.2 486.2 616.1 487.7 610.9 488.9L603.4 491.3L599.7 492.6L596.1 494.1C576.7 502.1 559.4 513.9 545.1 528.3C542.3 531.1 541.8 535.5 544.1 538.9C546.4 542.5 551.6 543.5 555.4 541ZM712.7 578.7C711.9 613.8 690.6 647.1 666.1 674.3C659.8 680.9 653.1 687.1 646 692.2C638.9 697.2 631.2 701.4 623.9 703.4C620.2 704.4 616.7 704.7 613.7 704.4C612.2 704.2 610.9 703.9 609.8 703.5C608.7 703 607.8 702.5 607 701.7C605.4 700.4 604.2 698.3 603.4 695.4C602.6 692.6 602.6 688.9 603 685.2C603.8 677.6 606.8 669.4 610.8 661.6C614.7 653.7 619.8 646.1 625.3 638.8C630.9 631.5 637 624.5 643.5 617.7C646.7 614.3 650.1 611 653.5 607.8C656.9 604.7 660.4 601.7 663.9 598.7C674.3 590.1 695.5 579.5 706.2 574.4C709.2 572.9 712.8 575.2 712.7 578.7Z" fill="black"/>
<path d="M825.2 1863C823.5 1854.1 818.3 1845.9 811 1840.6C803.7 1835.3 794.4 1832.8 785.6 1833.8C776.7 1834.8 768.4 1839.3 762.9 1846.1C757.3 1852.8 754.6 1861.7 755.5 1869.9C755.9 1873.4 758.5 1876.5 762.2 1877.2C766.7 1878.1 771.1 1875.1 772 1870.6L772.1 1869.9C773.7 1861.5 780.7 1856 787.7 1855.8C791.2 1855.6 794.7 1856.7 797.3 1858.9C799.9 1861.1 801.8 1864.1 802.4 1867.4L802.6 1868.6C802.6 1869 802.6 1869.4 802.7 1869.9L802.8 1874.5L802.9 1883.8L803.3 1902.4C803.6 1914.8 804.2 1927.2 806.2 1939.7C806.8 1943.2 809.5 1946.1 813.2 1946.7C817.8 1947.4 822.1 1944.3 822.8 1939.7C824.8 1927.3 825.4 1914.9 825.7 1902.4L826.1 1883.8L826.2 1874.5V1869.8C826.2 1868.7 826.1 1867.6 826 1866.4C825.6 1865.3 825.4 1864.1 825.2 1863Z" fill="black"/>
<path d="M822.5 1972.5C821.7 1969.8 819.6 1967.5 816.7 1966.7C812.1 1965.3 807.3 1967.9 805.9 1972.5C804.8 1976.2 804.2 1979.9 803.8 1983.5C803.4 1987.2 803.2 1990.9 803.1 1994.6C803 1998.3 803.2 2001.9 803.6 2005.6C804 2009.3 804.6 2012.9 805.8 2016.6C806.7 2019.2 808.7 2021.3 811.4 2022.2C816 2023.7 820.9 2021.2 822.4 2016.6C823.6 2012.9 824.2 2009.2 824.6 2005.6C825 2001.9 825.2 1998.2 825.1 1994.6C825 1990.9 824.9 1987.2 824.4 1983.5C824.2 1979.9 823.6 1976.2 822.5 1972.5Z" fill="black"/>
<path d="M802.8 2177C810.477 2177 816.7 2170.78 816.7 2163.1C816.7 2155.42 810.477 2149.2 802.8 2149.2C795.123 2149.2 788.9 2155.42 788.9 2163.1C788.9 2170.78 795.123 2177 802.8 2177Z" fill="black"/>
<path d="M796.7 1404.4C796.1 1401 793.5 1398.2 789.9 1397.6C785.3 1396.7 780.9 1399.8 780.1 1404.4C779 1410.3 778.4 1416.2 778 1422C777.6 1427.9 777.4 1433.8 777.3 1439.6C777.2 1445.5 777.4 1451.4 777.8 1457.2C778.2 1463.1 778.8 1469 780 1474.8C780.7 1478 783.2 1480.6 786.6 1481.4C791.2 1482.4 795.7 1479.4 796.7 1474.8C797.9 1468.9 798.6 1463 798.9 1457.2C799.3 1451.3 799.5 1445.4 799.4 1439.6C799.3 1433.7 799.2 1427.8 798.7 1422C798.4 1416.2 797.8 1410.3 796.7 1404.4Z" fill="black"/>
<path d="M778.2 1806.5L778.8 1806.3C781.7 1805 783.7 1802.1 783.8 1798.7C783.9 1794 780.1 1790.2 775.5 1790.1C767.8 1790 760 1791.7 752.7 1794.6L747.3 1797L742.2 1800C740.5 1801 739 1802.2 737.3 1803.4C735.7 1804.5 734.2 1805.8 732.7 1807.1C726.8 1812.3 721.5 1818.3 717.3 1825C713.1 1831.7 709.9 1839.1 707.7 1846.7C705.6 1854.4 704.8 1862.4 704.8 1870.1L705.2 1890.5C705.5 1904.1 705.7 1917.7 708.2 1931.3C708.8 1934.7 711.4 1937.4 715 1938.1C719.6 1938.9 724 1935.9 724.8 1931.3C727.3 1917.7 727.5 1904.1 727.8 1890.5L728.2 1870.1C728.4 1864.2 729.2 1858.7 730.7 1853.2C732.3 1847.8 734.6 1842.6 737.6 1837.7C740.5 1832.8 744.1 1828.4 748.3 1824.5C752.5 1820.6 757.1 1817.2 762.1 1814.3C767.2 1811.5 772.5 1809 778.2 1806.5Z" fill="black"/>
<path d="M772.1 1906C771.7 1902.2 768.7 1899 764.7 1898.6C760.1 1898.1 756 1901.4 755.5 1906C754.5 1915.2 753.9 1924.4 753.3 1933.6C752.8 1942.8 752.4 1952 752.3 1961.3C752.2 1970.5 752.6 1979.7 753.1 1988.9C753.6 1998.1 754.3 2007.3 755.4 2016.6C755.8 2020.3 758.8 2023.4 762.7 2023.9C767.3 2024.5 771.5 2021.2 772 2016.6C773.1 2007.4 773.8 1998.2 774.3 1988.9C774.8 1979.7 775.2 1970.5 775.1 1961.3C775 1952.1 774.6 1942.9 774.1 1933.6C773.7 1924.5 773.1 1915.2 772.1 1906Z" fill="black"/>
<path d="M747.4 2177C755.077 2177 761.3 2170.78 761.3 2163.1C761.3 2155.42 755.077 2149.2 747.4 2149.2C739.723 2149.2 733.5 2155.42 733.5 2163.1C733.5 2170.78 739.723 2177 747.4 2177Z" fill="black"/>
<path d="M732.6 1404.4C732 1401.1 729.4 1398.3 725.9 1397.7C721.3 1396.8 716.9 1399.8 716 1404.4C714.9 1410.3 714.3 1416.2 713.9 1422C713.5 1427.9 713.3 1433.8 713.3 1439.6C713.3 1445.5 713.4 1451.4 713.9 1457.2C714.3 1463.1 714.9 1469 716.1 1474.8C716.8 1478 719.3 1480.7 722.8 1481.4C727.4 1482.3 731.9 1479.3 732.8 1474.8C734 1468.9 734.6 1463 735 1457.2C735.4 1451.3 735.6 1445.4 735.6 1439.6C735.5 1433.7 735.4 1427.8 735 1422C734.3 1416.2 733.7 1410.3 732.6 1404.4Z" fill="black"/>
<path d="M724.9 1963.4C724 1961.7 722.7 1960.3 720.9 1959.4C716.3 1957 710.7 1958.8 708.3 1963.4C707.1 1965.7 706.5 1968.1 706.1 1970.4C705.7 1972.7 705.5 1975.1 705.5 1977.4C705.5 1979.7 705.7 1982.1 706.1 1984.4C706.6 1986.7 707.1 1989.1 708.2 1991.4C709.1 1993.2 710.6 1994.8 712.5 1995.7C717.1 1997.9 722.6 1996 724.8 1991.4C725.9 1989.1 726.5 1986.7 726.9 1984.4C727.3 1982.1 727.5 1979.7 727.5 1977.4C727.5 1975.1 727.4 1972.7 726.9 1970.4C726.7 1968.1 726.1 1965.8 724.9 1963.4Z" fill="black"/>
<path d="M713.6 1789.9C715.9 1787 716 1782.9 713.8 1779.8C711.1 1776 705.8 1775.2 702.1 1777.9C688.2 1787.9 677.5 1802.2 670.2 1817.9C666.5 1825.8 663.7 1834 661.7 1842.5C659.8 1851 658.7 1859.7 658.5 1868.4C658.4 1870.6 658.4 1872.5 658.4 1874.5V1880.4V1892.3C658.4 1900.2 658.6 1908.1 658.6 1916C658.7 1931.8 659.1 1947.7 662 1963.5C662.6 1966.8 665.2 1969.6 668.8 1970.2C673.4 1971.1 677.8 1968 678.7 1963.5C681.7 1947.7 682 1931.8 682.1 1916C682.2 1908.1 682.4 1900.2 682.3 1892.3L682.4 1868.8C682.4 1854.6 685.2 1840.3 690.7 1827.1C696.3 1813.9 704.2 1801.8 713.4 1790.1L713.6 1789.9Z" fill="black"/>
<path d="M494.7 2337.6C481.9 2328.6 467.2 2321.6 451.1 2318.5C443 2317 434.7 2316.6 426.3 2317.1C417.9 2317.9 409.6 2319.8 401.7 2323C385.8 2329.3 372.3 2340.9 362.9 2355C360.2 2359.1 356.7 2366.9 354.3 2372.9C352.4 2377.6 348.1 2381.1 343.1 2382C332.8 2383.8 322.7 2387.3 313.4 2392.1C284.1 2407.4 262.6 2436.3 256.8 2468.8C256.3 2470.8 256.1 2472.9 255.9 2474.9C255.7 2477 255.4 2479 255.2 2481L255.1 2487.1L255 2490.2L255.2 2493.3L255.6 2499.4C255.8 2501.4 256.2 2503.4 256.5 2505.4C257 2509.4 258.1 2513.4 259.2 2517.3C263.7 2532.9 271.6 2547.1 281.5 2559.1C284 2562.2 288.6 2563.1 292.2 2561C296.2 2558.6 297.5 2553.5 295.1 2549.6V2549.5C288 2537.5 282.6 2524.9 279.7 2512C276.8 2499.1 276.1 2485.7 278.7 2472.9C283.4 2447.2 300.9 2424.3 323.9 2412.4C328.7 2409.9 333.7 2408 338.9 2406.5C343.3 2405.3 347.8 2408.5 348 2413.1C348.3 2417.9 348.9 2422.7 349.9 2427.3L350.5 2430.3L351.3 2433.3C351.9 2435.3 352.4 2437.3 353 2439.2C354.4 2443 355.6 2447 357.4 2450.6C358.2 2452.5 359 2454.3 359.9 2456.1L362.8 2461.4L364.2 2464.1L365.8 2466.7L369 2471.7C373.5 2478.3 378.4 2484.8 384.5 2490.7C390.5 2496.5 397.2 2502 405.4 2505.9C413.5 2509.8 423 2512.4 433.2 2511.3C434.5 2511.1 435.8 2511 437 2510.8L440.8 2509.8L442.7 2509.3L444.5 2508.5C445.7 2508 446.9 2507.4 448.1 2506.9C452.7 2504.3 457.1 2501 460.3 2496.7C467.1 2488.3 469.5 2477.7 469.2 2468.2C468.9 2458.5 465.9 2449.8 462 2442.1C458 2434.4 453 2427.6 447.4 2421.6C446.1 2420 444.6 2418.7 443.1 2417.2C441.6 2415.8 440.2 2414.3 438.7 2413C435.6 2410.4 432.7 2407.6 429.5 2405.4C426.3 2403 423.2 2400.6 419.7 2398.5L414.6 2395.2C412.8 2394.2 411 2393.3 409.2 2392.3C402 2388.4 394.2 2385.6 386.2 2383.4C385.5 2383.2 384.8 2383.1 384.2 2382.9C379.6 2381.9 377.2 2376.8 379.3 2372.6C380.2 2370.8 381.2 2369.1 382.4 2367.4C389.3 2357 399.1 2348.5 410.7 2343.9C416.4 2341.5 422.5 2339.9 428.8 2339.2C435.1 2338.5 441.5 2338.6 448 2339.3C461 2341.1 473.9 2345.5 486.4 2351.7H486.5C490.1 2353.5 494.6 2352.4 497 2349C499.3 2345.4 498.4 2340.2 494.7 2337.6ZM380.2 2406.1C386.4 2407.7 392.4 2410.1 398.1 2413.2C399.5 2414 401 2414.7 402.5 2415.5L406.6 2418.2C409.4 2419.9 412.1 2422 414.8 2424.1C417.6 2426.1 420 2428.4 422.6 2430.6C423.9 2431.7 425 2432.9 426.2 2434.1C427.3 2435.3 428.6 2436.4 429.6 2437.7C434 2442.5 437.7 2447.8 440.5 2453.1C443.3 2458.5 444.9 2464 445 2469.2C445.3 2479.5 439.7 2487 430.5 2487.7C426 2488.3 420.7 2487.1 415.5 2484.6C410.3 2482.2 405.4 2478.3 400.8 2473.9C391.7 2465 384 2453.1 378.6 2441.2C377.1 2438.2 376.2 2435.1 375 2432L373.7 2427.3L373 2425L372.6 2422.6C371.9 2419.7 371.5 2416.7 371.2 2413.8C370.8 2408.8 375.4 2404.8 380.2 2406.1Z" fill="black"/>
<path d="M324.1 742.4C332.1 750.7 340.2 758.7 348.5 766.7L361 778.5C365.2 782.4 369.4 786.3 373.7 790.1C382.2 797.7 390.9 805.2 400 812.3C403.6 815.1 408.9 814.5 411.7 810.8C414.2 807.6 414 803.2 411.5 800.3C404.1 791.5 396.2 783.1 388.2 774.9C384.2 770.8 380.1 766.7 376.1 762.7L363.8 750.7C355.5 742.8 347.1 735 338.6 727.3C330 719.7 321.4 712.1 312.3 705C308.7 702.1 303.4 702.8 300.6 706.4C298.1 709.6 298.3 714 300.8 717C308.3 725.8 316.1 734.2 324.1 742.4Z" fill="black"/>
<path d="M460.6 773.5C461.8 778.1 466.4 780.9 471 779.7C474.2 778.9 476.5 776.4 477.2 773.5C478.4 768.6 479.1 763.6 479.5 758.7C479.9 753.8 480.1 748.8 480 743.9C479.9 739 479.7 734 479.3 729.1C478.9 724.2 478.3 719.2 477.2 714.3C476.2 709.7 471.7 706.8 467.1 707.8C463.7 708.5 461.3 711.2 460.6 714.3C459.5 719.2 459 724.2 458.5 729.1C458.1 734 457.9 739 457.8 743.9C457.7 748.8 457.9 753.8 458.3 758.7C458.7 763.6 459.3 768.6 460.6 773.5Z" fill="black"/>
<path d="M342.3 878.8C347.2 878.7 352.2 878.6 357.1 878.1C362 877.7 367 877.1 371.9 876C376.5 875 379.4 870.4 378.4 865.8C377.7 862.5 375.1 860 371.9 859.3C367 858.2 362 857.6 357.1 857.2C352.2 856.8 347.2 856.6 342.3 856.5C337.4 856.4 332.4 856.6 327.5 857C322.6 857.4 317.6 858 312.7 859.2C308.1 860.3 305.3 865 306.4 869.6C307.2 872.8 309.7 875.1 312.7 875.9C317.6 877.1 322.6 877.7 327.5 878.1C332.4 878.6 337.3 878.8 342.3 878.8Z" fill="black"/>
<path d="M266.2 1522.5C268.7 1519.3 268.5 1514.9 266 1512C258.6 1503.2 250.7 1494.8 242.7 1486.6C238.7 1482.5 234.6 1478.4 230.6 1474.4L218.3 1462.4C210 1454.5 201.6 1446.7 193.1 1439C184.5 1431.4 175.9 1423.8 166.8 1416.7C163.2 1413.8 157.9 1414.5 155.1 1418.1C152.6 1421.3 152.8 1425.7 155.3 1428.7C162.8 1437.4 170.6 1445.8 178.6 1454C186.6 1462.3 194.7 1470.3 203 1478.3L215.5 1490.1C219.7 1494 223.9 1497.9 228.2 1501.7C236.7 1509.3 245.4 1516.8 254.5 1523.9C258.1 1526.8 263.4 1526.1 266.2 1522.5Z" fill="black"/>
<path d="M331.7 1425.8C330.7 1421.2 326.2 1418.3 321.6 1419.3C318.2 1420 315.8 1422.7 315.1 1425.8C314 1430.7 313.5 1435.7 313 1440.6C312.6 1445.5 312.4 1450.5 312.3 1455.4C312.2 1460.3 312.4 1465.3 312.8 1470.2C313.2 1475.1 313.8 1480.1 315.1 1485C316.3 1489.6 320.9 1492.4 325.5 1491.2C328.7 1490.4 331 1487.9 331.7 1485C332.9 1480.1 333.6 1475.1 334 1470.2C334.4 1465.3 334.6 1460.3 334.5 1455.4C334.4 1450.5 334.2 1445.5 333.8 1440.6C333.3 1435.7 332.8 1430.8 331.7 1425.8Z" fill="black"/>
<path d="M226.4 1571C221.5 1569.9 216.5 1569.3 211.6 1568.9C206.7 1568.5 201.7 1568.3 196.8 1568.2C191.9 1568.1 186.9 1568.3 182 1568.7C177.1 1569.1 172.1 1569.7 167.2 1570.9C162.6 1572 159.8 1576.7 160.9 1581.3C161.7 1584.5 164.2 1586.8 167.2 1587.6C172.1 1588.8 177.1 1589.4 182 1589.8C186.9 1590.2 191.9 1590.4 196.8 1590.3C201.7 1590.2 206.7 1590.1 211.6 1589.6C216.5 1589.2 221.5 1588.6 226.4 1587.5C231 1586.5 233.9 1581.9 232.9 1577.3C232.2 1574.1 229.6 1571.7 226.4 1571Z" fill="black"/>
<path d="M2844.9 1664.9C2842 1661.3 2836.8 1660.7 2833.2 1663.5C2824.2 1670.6 2815.5 1678.1 2806.9 1685.8C2798.3 1693.4 2790 1701.3 2781.7 1709.2L2769.4 1721.2C2765.4 1725.3 2761.3 1729.3 2757.3 1733.4C2749.3 1741.6 2741.5 1750 2734 1758.8C2731.5 1761.8 2731.3 1766.2 2733.8 1769.3C2736.6 1772.9 2741.9 1773.6 2745.5 1770.8C2754.6 1763.7 2763.3 1756.2 2771.8 1748.6C2776.1 1744.8 2780.3 1740.9 2784.5 1737L2797 1725.2C2805.2 1717.2 2813.4 1709.2 2821.4 1700.9C2829.4 1692.7 2837.2 1684.3 2844.7 1675.6C2847.3 1672.5 2847.4 1668 2844.9 1664.9Z" fill="black"/>
<path d="M2668.3 1731.9C2669.1 1734.8 2671.4 1737.3 2674.5 1738.1C2679.1 1739.3 2683.8 1736.5 2684.9 1731.9C2686.1 1727 2686.8 1722 2687.2 1717.1C2687.6 1712.2 2687.8 1707.2 2687.7 1702.3C2687.6 1697.4 2687.4 1692.4 2687 1687.5C2686.6 1682.6 2686 1677.6 2684.9 1672.7C2684.2 1669.5 2681.7 1666.9 2678.4 1666.2C2673.8 1665.2 2669.3 1668.1 2668.3 1672.7C2667.2 1677.6 2666.7 1682.6 2666.2 1687.5C2665.8 1692.4 2665.6 1697.4 2665.5 1702.3C2665.4 1707.2 2665.6 1712.2 2666 1717.1C2666.4 1722 2667.1 1726.9 2668.3 1731.9Z" fill="black"/>
<path d="M2832.8 1817.8C2827.9 1816.6 2822.9 1816 2818 1815.6C2813.1 1815.2 2808.1 1815 2803.2 1815.1C2798.3 1815.2 2793.3 1815.3 2788.4 1815.8C2783.5 1816.2 2778.5 1816.8 2773.6 1817.9C2770.5 1818.6 2767.9 1821 2767.1 1824.4C2766.1 1829 2769 1833.5 2773.6 1834.6C2778.5 1835.7 2783.5 1836.3 2788.4 1836.7C2793.3 1837.1 2798.3 1837.3 2803.2 1837.4C2808.1 1837.5 2813.1 1837.3 2818 1836.9C2822.9 1836.5 2827.9 1835.9 2832.8 1834.7C2835.8 1834 2838.3 1831.6 2839.1 1828.4C2840.2 1823.5 2837.4 1818.9 2832.8 1817.8Z" fill="black"/>
</svg>
